<svg xmlns="http://www.w3.org/2000/svg" viewBox="0 0 15.97 15.82"><defs><style>.cls-1,.cls-2{fill:#fff;}.cls-2{fill-rule:evenodd;}</style></defs><g id="Ebene_2" data-name="Ebene 2"><g id="Ebene_1-2" data-name="Ebene 1"><path class="cls-1" d="M15.82.15a.5.5,0,0,0-.71,0l-.44.44L14.39.31a.51.51,0,0,0-.71,0,.51.51,0,0,0,0,.71L14,1.3l-.53.53-.28-.28a.49.49,0,0,0-.7.7l.28.28L7.55,7.71a.51.51,0,0,0,0,.71.54.54,0,0,0,.36.14.52.52,0,0,0,.35-.14l5.17-5.18.28.28a.51.51,0,0,0,.36.15.5.5,0,0,0,.35-.85l-.28-.29L14.67,2l.28.28a.51.51,0,0,0,.36.15.5.5,0,0,0,.35-.85l-.28-.28.44-.45A.48.48,0,0,0,15.82.15Z"/><path class="cls-2" d="M9,9.13a1.48,1.48,0,0,1-1.05.43,1.53,1.53,0,0,1-1.07-.44A1.5,1.5,0,0,1,6.85,7l.93-.92a1.4,1.4,0,0,0-1.6-.29C5.05,6.46,4.82,7.36,4,7.84S1.62,8.12.47,9.45c-.77,1-.69,3.11.94,4.81,1.39,1.46,3.43,1.94,4.64,1.26s1.67-3,2.28-3.81.3-.19,1.58-1.56a1.35,1.35,0,0,0,0-2ZM4.4,13.54a.46.46,0,0,1-.35.14.47.47,0,0,1-.35-.14L2.43,12.27a.5.5,0,0,1,0-.71.51.51,0,0,1,.71,0L4.4,12.83A.5.5,0,0,1,4.4,13.54Zm.81-1.37a1.4,1.4,0,1,1,1.4-1.4A1.4,1.4,0,0,1,5.21,12.17Z"/></g></g></svg>