<svg xmlns="http://www.w3.org/2000/svg" viewBox="0 0 13.66 19.58"><defs><style>.cls-1{fill:#fefbfb;}</style></defs><g id="Ebene_2" data-name="Ebene 2"><g id="Ebene_1-2" data-name="Ebene 1"><path class="cls-1" d="M5.17,8.32l-.25,0c0-.8,0-1.56-.06-2.27A4.36,4.36,0,0,0,7.05,2.62,2.92,2.92,0,0,0,6.54.46,1.55,1.55,0,0,0,5.4,0a1.38,1.38,0,0,0-1,.44A3.69,3.69,0,0,0,3.77,2.9c0,.48,0,1.44.07,2.65l-.13.08a9.92,9.92,0,0,0-1.2.86C.83,7.9,0,9.41,0,10.87a3.9,3.9,0,0,0,1.3,3,4.53,4.53,0,0,0,2.81,1c0,1.5.07,2.51.07,2.51s0,1.2-.69,1.22c-1,0-1-.35-1-.87a.51.51,0,0,0-.52-.49.5.5,0,0,0-.48.52,1.73,1.73,0,0,0,2,1.84h.09a1.48,1.48,0,0,0,1.08-.47,2.75,2.75,0,0,0,.59-1.78s0-1-.07-2.52A3.48,3.48,0,0,0,8,11.47C8,9,6.46,8.37,5.17,8.32ZM2,13.1A2.89,2.89,0,0,1,1,10.85C1,9.4,2.15,8.1,3.16,7.25a5.16,5.16,0,0,1,.72-.53c0,.59,0,1.21.05,1.85a2.65,2.65,0,0,0-1.65,2.22.49.49,0,0,0,.46.53.51.51,0,0,0,.54-.46A1.71,1.71,0,0,1,4,9.68c0,1.45.08,2.91.12,4.17A3.56,3.56,0,0,1,2,13.1ZM4.77,2.87a2.77,2.77,0,0,1,.36-1.74A.34.34,0,0,1,5.41,1h0a.43.43,0,0,1,.37.14,2,2,0,0,1,.25,1.41,3,3,0,0,1-1.23,2.3C4.8,4,4.78,3.26,4.77,2.87ZM6.44,13a2.38,2.38,0,0,1-1.36.81C5,12.45,5,10.88,5,9.34l.22,0C6.44,9.37,7,10,7,11.5A2.36,2.36,0,0,1,6.44,13Z"/><path class="cls-1" d="M13.6,5.5a.5.5,0,0,0-.5-.5.5.5,0,0,0-.5.5v5.71a2.09,2.09,0,0,0-.72-.13,1.63,1.63,0,0,0-1.79,1.4,1.63,1.63,0,0,0,1.79,1.4,1.63,1.63,0,0,0,1.77-1.36h0Z"/></g></g></svg>