<svg xmlns="http://www.w3.org/2000/svg" viewBox="0 0 15.33 18.19"><defs><style>.cls-1{fill:#fff;}</style></defs><g id="Ebene_2" data-name="Ebene 2"><g id="Ebene_1-2" data-name="Ebene 1"><path class="cls-1" d="M5.12,0A5.25,5.25,0,0,0,.74,2.33,4.64,4.64,0,0,0,.11,5.85,4.23,4.23,0,0,0,1.35,8a3.68,3.68,0,0,0,2.39.87,1.72,1.72,0,1,0-1.68-2.1l-.23-.09a1.41,1.41,0,0,1-.75-1,3.69,3.69,0,0,1,.47-2.7A4.26,4.26,0,0,1,5.1,1,4.62,4.62,0,0,1,9.56,5.84c0,3.53-2.18,6.75-7.8,11.47a.5.5,0,0,0,.32.88.52.52,0,0,0,.33-.12c5.87-4.93,8.15-8.36,8.15-12.24A5.62,5.62,0,0,0,5.12,0Z"/><path class="cls-1" d="M14.08,6.73A1.25,1.25,0,1,0,15.33,8,1.25,1.25,0,0,0,14.08,6.73Z"/><path class="cls-1" d="M14.08,5.49a1.25,1.25,0,1,0-1.24-1.25A1.25,1.25,0,0,0,14.08,5.49Z"/></g></g></svg>