<svg xmlns="http://www.w3.org/2000/svg" viewBox="0 0 18.06 16.57"><defs><style>.cls-1{fill:#fefbfb;}</style></defs><g id="Ebene_2" data-name="Ebene 2"><g id="Ebene_1-2" data-name="Ebene 1"><path class="cls-1" d="M8.81,8.22a1.38,1.38,0,0,1-.63.36.67.67,0,0,1-.3.08h0l-.1,0a1.48,1.48,0,0,1-1-.43,1.5,1.5,0,0,1,0-2.12l1.88-1.9-.14,0a3.47,3.47,0,0,0-.85-.1,3.36,3.36,0,0,0-2.12.72l-.29.25a.31.31,0,0,0-.08.37A1.72,1.72,0,0,1,4.19,7.7a1.76,1.76,0,0,1-.7.15,1.72,1.72,0,0,1-1-.3.28.28,0,0,0-.18-.06.37.37,0,0,0-.2.07l-.37.31A3.73,3.73,0,0,0,.53,11.66s0,.07.06.17L2.48,10A1.06,1.06,0,0,1,4,10l.93.93a1.07,1.07,0,0,1,0,1.52L3,14.31l.21.07a3.65,3.65,0,0,0,.93.12A3.76,3.76,0,0,0,7,13.15l.31-.37a.33.33,0,0,0,0-.38A1.72,1.72,0,0,1,7.8,10a1.74,1.74,0,0,1,1-.3,1.78,1.78,0,0,1,.71.15.31.31,0,0,0,.13,0,.32.32,0,0,0,.24-.11l.24-.3a3.56,3.56,0,0,0,.56-3.13Z"/><path class="cls-1" d="M8.27,16.57a.5.5,0,0,1-.36-.14.51.51,0,0,1,0-.71L17.2,6.3a.5.5,0,1,1,.72.7l-9.3,9.43A.54.54,0,0,1,8.27,16.57Z"/><path class="cls-1" d="M14.69,1.42l-.29-.29L14.62.9a.49.49,0,0,0,0-.7.49.49,0,0,0-.7,0l-.22.22L13.41.15a.5.5,0,0,0-.71,0,.5.5,0,0,0,0,.7l.29.29-.31.31-.29-.29a.51.51,0,0,0-.71,0,.51.51,0,0,0,0,.71l.3.29L7.38,6.82a.5.5,0,0,0,0,.71.52.52,0,0,0,.35.14.51.51,0,0,0,.36-.15l4.58-4.65.28.28a.5.5,0,0,0,.36.14.5.5,0,0,0,.35-.85l-.28-.28.3-.32.29.29a.5.5,0,0,0,.35.15.51.51,0,0,0,.36-.15A.51.51,0,0,0,14.69,1.42Z"/><path class="cls-1" d="M4.33,11.48l-.93-.93a.22.22,0,0,0-.32,0L.76,12.87a.22.22,0,0,0,0,.32l.08.09L.15,14a.5.5,0,0,0,.35.85.5.5,0,0,0,.35-.14l.7-.7.14.13a.2.2,0,0,0,.16.07A.21.21,0,0,0,2,14.12L4.33,11.8A.22.22,0,0,0,4.33,11.48Z"/></g></g></svg>