<svg xmlns="http://www.w3.org/2000/svg" viewBox="0 0 19.28 15.52"><defs><style>.cls-1{fill:#fefbfb;}</style></defs><g id="Ebene_2" data-name="Ebene 2"><g id="Ebene_1-2" data-name="Ebene 1"><path class="cls-1" d="M19.22,5.58l-3-5.32a.5.5,0,1,0-.88.48l.13.23c-.33.83-1.43,3.45-2.65,4.15l-4,2.31-.39-.71a.5.5,0,0,0-.68-.19.49.49,0,0,0-.19.68l.4.72L7,8.48l-.41-.74a.5.5,0,0,0-.88.48L6.15,9l-1,.56-.43-.77a.5.5,0,0,0-.88.49l.44.78-4,2.33a.56.56,0,0,0-.21.76.57.57,0,0,0,.77.21l.85-.49A2.49,2.49,0,0,0,2,14.26a2.52,2.52,0,0,0,3.43.93L12.7,11a2.51,2.51,0,0,0-.15-4.42l.85-.49c1.17-.68,3.85-.38,4.83-.24l.11.21a.51.51,0,0,0,.44.26A.57.57,0,0,0,19,6.26.51.51,0,0,0,19.22,5.58ZM12.65,8.13a1.38,1.38,0,0,1-.51,1.9L4.88,14.22A1.4,1.4,0,0,1,3.49,11.8L4.85,11l.35.62a.49.49,0,0,0,.43.26.54.54,0,0,0,.25-.06.5.5,0,0,0,.19-.68l-.35-.64,1-.57.37.66a.51.51,0,0,0,.43.26.54.54,0,0,0,.25-.06.5.5,0,0,0,.19-.68l-.37-.68,1-.54.38.68a.49.49,0,0,0,.44.26.53.53,0,0,0,.24-.06.51.51,0,0,0,.2-.68l-.39-.7,1.37-.79A1.38,1.38,0,0,1,12.65,8.13Z"/></g></g></svg>