<svg xmlns="http://www.w3.org/2000/svg" viewBox="0 0 13.75 19.17"><defs><style>.cls-1{fill:#fefbfb;}</style></defs><g id="Ebene_2" data-name="Ebene 2"><g id="Ebene_1-2" data-name="Ebene 1"><path class="cls-1" d="M13.73,17.49s0,0,0-.06l0-.09v0L8.67.75A.4.4,0,0,0,8.53.53,2.76,2.76,0,0,0,6.77,0,2.81,2.81,0,0,0,5.06.6a.51.51,0,0,0-.2.28L0,17.45s0,0,0,.05a.24.24,0,0,0,0,.08s0,0,0,.05a.29.29,0,0,0,0,.09c.32,1.3,4.85,1.45,6.85,1.45s6.55-.15,6.84-1.46a.24.24,0,0,0,0-.09s0,0,0,0A.29.29,0,0,0,13.73,17.49Zm-6.85.68a19.81,19.81,0,0,1-5.6-.59,13.62,13.62,0,0,1,3.16-.5l.32-2.14L3,13.42A.25.25,0,0,1,3,13.16.22.22,0,0,1,3.14,13l2.34-.4,1-2.05a.23.23,0,0,1,.21-.14.28.28,0,0,1,.23.12l1.11,2,2.35.26a.24.24,0,0,1,.21.16.24.24,0,0,1-.06.26L8.88,14.81,9.34,17s0,0,0,.06a13.47,13.47,0,0,1,3.13.5A19.72,19.72,0,0,1,6.88,18.17Z"/><path class="cls-1" d="M5.54,17c.42,0,.86,0,1.34,0s1.06,0,1.54,0L6.86,16.3Z"/></g></g></svg>