<svg xmlns="http://www.w3.org/2000/svg" viewBox="0 0 10.45 20.46"><defs><style>.cls-1{fill:#fefbfb;}</style></defs><g id="Ebene_2" data-name="Ebene 2"><g id="Ebene_1-2" data-name="Ebene 1"><path class="cls-1" d="M7.23,4.65H.57A.57.57,0,0,0,0,5.22V9.51a.57.57,0,0,0,.57.57h.77a.53.53,0,0,1,.48-.32H6a.54.54,0,0,1,.49.32h.76a.56.56,0,0,0,.57-.57V5.22A.56.56,0,0,0,7.23,4.65Z"/><path class="cls-1" d="M10,5.84a.5.5,0,0,1-.42-.22L6.33.78A.5.5,0,1,1,7.16.22l3.21,4.85a.49.49,0,0,1-.42.77Z"/><path class="cls-1" d="M5.82,19.46H4.42v-8.6s0,0,0,0h-1v8.64H2a.5.5,0,1,0,0,1H5.82a.5.5,0,0,0,0-1Z"/></g></g></svg>