<svg xmlns="http://www.w3.org/2000/svg" viewBox="0 0 20.29 8.65"><defs><style>.cls-1{fill:#fefbfb;}</style></defs><g id="Ebene_2" data-name="Ebene 2"><g id="Ebene_1-2" data-name="Ebene 1"><path class="cls-1" d="M4.75,6.13C.86,5.56.31,5.07.24,5A2.63,2.63,0,0,1,2.32,3.31l1.47-.15A5.67,5.67,0,0,1,4.75,6.13Z"/><path class="cls-1" d="M15.07,4.28a.94.94,0,0,1-.69-.37A8.24,8.24,0,0,1,15.49,4,.8.8,0,0,1,15.07,4.28Z"/><path class="cls-1" d="M4.9,7.16l.22,0h.24c1.63,0,10.14-.64,14-.94V7.59a.32.32,0,0,1-.29.31L5.43,8.65C5.27,8.64,1.49,8.39.34,7A1.47,1.47,0,0,1,0,6,16.9,16.9,0,0,0,4.9,7.16Z"/><path class="cls-1" d="M20.13,1.56a.5.5,0,0,0,0-.7,1.23,1.23,0,0,0-.93-.41,2.15,2.15,0,0,0-1.41.83.2.2,0,0,0,0,.08,20,20,0,0,1-2.53.21h0A7.32,7.32,0,0,1,11.7.09a.31.31,0,0,0-.32,0l-.76.38L10.45.2a.5.5,0,0,0-.7-.1.51.51,0,0,0-.1.7l0,.07L9.41,1,9.27.82a.5.5,0,1,0-.81.59l0,0-.29.14-.13-.17a.51.51,0,0,0-.7-.1.5.5,0,0,0-.1.7h0l-.41.19-.08-.11a.51.51,0,0,0-.7-.1A.5.5,0,0,0,6,2.65c-.42.18-.7.31-.78.33L4.87,3A6.05,6.05,0,0,1,5.74,6.2c1.84-.07,8.4-.54,13.53-.94l-.69-3.35s0,0,0,0c.15-.18.46-.45.66-.45,0,0,.08,0,.16.08A.5.5,0,0,0,20.13,1.56ZM17.88,4a.39.39,0,0,1-.44.3c-.37-.07-.75-.14-1.12-.19a1.81,1.81,0,0,1-1.1.93A.86.86,0,0,1,15,5a1.85,1.85,0,0,1-1.39-.87.54.54,0,0,1-.08-.66c.09-.15.31-.5,2.36-.25A3.38,3.38,0,0,0,16,2.88a.38.38,0,0,1,.46-.26.37.37,0,0,1,.26.46s0,.14-.09.28l.93.17A.39.39,0,0,1,17.88,4Z"/></g></g></svg>