<svg xmlns="http://www.w3.org/2000/svg" viewBox="0 0 14.51 16.92"><defs><style>.cls-1{fill:#fefbfb;}</style></defs><g id="Ebene_2" data-name="Ebene 2"><g id="Ebene_1-2" data-name="Ebene 1"><path class="cls-1" d="M13.81,9.42a2.42,2.42,0,0,1-.26-.5A11.66,11.66,0,0,1,13,3.33,19.37,19.37,0,0,0,13.05.19.18.18,0,0,0,13,0a.17.17,0,0,0-.17,0l-1.73.5c.33,4,.41,4.6.41,4.6,0,.27-.09.51-.37.53a.56.56,0,0,1-.13,0,.49.49,0,0,1-.49-.46s-.08-.5-.4-4.39l-2.63.77a.19.19,0,0,0-.14.17A8.28,8.28,0,0,0,8,4c.59,1.66,1.58,4.45,1.15,5a8.34,8.34,0,0,1-1.34,1.19,35.76,35.76,0,0,0-4.91,4.63,3.54,3.54,0,0,0-.75-.07C.91,14.69,0,15.17,0,15.81s.91,1.11,2.12,1.11a3.18,3.18,0,0,0,1.6-.37,10.94,10.94,0,0,0,1.16-.18A6.31,6.31,0,0,0,7.58,15,5.12,5.12,0,0,1,9,14.08a2.81,2.81,0,0,1,1.29,0c.24,0,.51.07.81.09a2.84,2.84,0,0,0,.66.09A2.66,2.66,0,0,0,13,14a2,2,0,0,0,1.39-1.39A3.75,3.75,0,0,0,13.81,9.42Zm-1.07,2.06a1.69,1.69,0,0,1-1.22.45l-.32,0a.5.5,0,0,1-.44-.55.5.5,0,0,1,.55-.44.91.91,0,0,0,.73-.15.87.87,0,0,0,.18-.58.52.52,0,0,1,.46-.54.49.49,0,0,1,.54.46A1.79,1.79,0,0,1,12.74,11.48Z"/></g></g></svg>