<svg xmlns="http://www.w3.org/2000/svg" viewBox="0 0 9.18 20.37"><defs><style>.cls-1{fill:#fefbfb;}</style></defs><g id="Ebene_2" data-name="Ebene 2"><g id="Ebene_1-2" data-name="Ebene 1"><path class="cls-1" d="M9.16,5.87C9,4.42,7.15,3.08,7.07,3a.29.29,0,0,0-.24,0,.3.3,0,0,0-.19.14A13.44,13.44,0,0,0,5.51,6.3l-.15.54A13.1,13.1,0,0,1,1.6,3.33a26.92,26.92,0,0,1,5.06-.85l0,0a.24.24,0,0,0,.13,0l0,0,0,0s0,0,0,0V2.26l0,0s0,0,0,0,0,0,0,0l0,0,0-.08a.21.21,0,0,0,0-.06s0,0-.06-.05,0,0,0,0A23.18,23.18,0,0,0,2,0a.29.29,0,0,0-.36.22.3.3,0,0,0,.23.36,21.57,21.57,0,0,1,2.87,1C2.63,1.35,2,1.23,2,1.23a.3.3,0,1,0-.11.58s.55.11,2.29.35a12.51,12.51,0,0,0-3.12.75S1,3,1,3s-.06,0-.07.08a.48.48,0,0,0,0,.12s0,.06,0,.1S1.59,5,5.19,7.45a24.48,24.48,0,0,1-1.45,3.92C2.53,13.89,1.5,14.56.24,14.83a.3.3,0,0,0-.24.31,8,8,0,0,0,.92,2.77c.2.43.41.87.59,1.33a1.68,1.68,0,0,0,1,1,2.36,2.36,0,0,0,.75.12,4.2,4.2,0,0,0,2-.55c.62-.36.65-2.38.48-6.25,0-.46,0-.85,0-1.1C5.68,11.1,8,8.18,8.78,7.22A1.7,1.7,0,0,0,9.16,5.87Z"/></g></g></svg>