<svg xmlns="http://www.w3.org/2000/svg" viewBox="0 0 17.3 14.91"><defs><style>.cls-1{fill:#fff;}.cls-2{fill:#fefbfb;}</style></defs><g id="Ebene_2" data-name="Ebene 2"><g id="Ebene_1-2" data-name="Ebene 1"><path class="cls-1" d="M8.22,10.89a.18.18,0,0,1,.1,0,.23.23,0,0,1,.14,0,1.64,1.64,0,0,0,.84.24,2,2,0,0,0,1.63-1.06c.52-.77,1.06-1.77,1.63-2.82a29.93,29.93,0,0,1,2.88-4.64.23.23,0,0,1,.2-.1.31.31,0,0,1,.13,0c.06,0,1.52.94,1.52,3.74a2.72,2.72,0,0,1-.43,1.75c-.36.58-.84,1.37-.84,6.5a.31.31,0,0,1-.28.33H15a.31.31,0,0,1-.28-.33V11a3,3,0,0,0-.3-1.44.26.26,0,0,0-.19-.1c-.32,0-1,1.6-1.43,2.55-.78,1.78-1.28,2.88-1.9,2.88a24.79,24.79,0,0,1-6.29-.78.27.27,0,0,1-.19-.21C4.29,13.55,4.44,12.51,8.22,10.89Z"/><path class="cls-2" d="M.61,5.93C-.72,3.77.52,1.18.57,1.07A.33.33,0,0,1,.75.92.29.29,0,0,1,1,.94a9,9,0,0,0,3.14.8A3.52,3.52,0,0,0,7.15.3L7.34.1C7.58-.11,8,0,9.08.65l.1-.09a.5.5,0,0,1,.71,0,.49.49,0,0,1,0,.62l.28.18.09-.1A.51.51,0,0,1,11,1.21a.49.49,0,0,1,.05.7,6.57,6.57,0,0,0,.61.37,20.19,20.19,0,0,0,2.21.79,29.85,29.85,0,0,0-2.21,3.72l-.14.27-.74,0h-.11a.8.8,0,0,1-.54-.2H10a41.44,41.44,0,0,1-4.48-.73l-.1.7a.29.29,0,0,1-.29.26h0C1.06,7.13.79,6.79.7,6.67a.44.44,0,0,1-.06-.3,1.68,1.68,0,0,0,0-.4S.62,6,.61,5.93Z"/></g></g></svg>