<svg xmlns="http://www.w3.org/2000/svg" viewBox="0 0 16.59 15.08"><defs><style>.cls-1{fill:#fefbfb;}</style></defs><g id="Ebene_2" data-name="Ebene 2"><g id="Ebene_1-2" data-name="Ebene 1"><path class="cls-1" d="M9.7,12.27c.32-.49.65-1,1-1.66.09-.16.2-.3.29-.46a5.25,5.25,0,0,1,2.11-3.28,8.52,8.52,0,0,1,3.46-1.79A7.24,7.24,0,0,0,15.09.23.61.61,0,0,0,14.73,0c-.3,0-.44,0-.85.45a7.3,7.3,0,0,1-2.06,1.38A5.08,5.08,0,0,1,8.55,1,2.73,2.73,0,0,0,8,.75C7.46.6,7.26,1,6.5,3L6.35,3a.5.5,0,0,0-.56.42A.49.49,0,0,0,6.16,4c0,.19-.1.37-.14.55h-.1a.51.51,0,0,0-.56.43.5.5,0,0,0,.42.56h0c0,.17-.06.34-.1.51h0a.5.5,0,0,0-.56.43A.48.48,0,0,0,5.48,7a5,5,0,0,1-.43.91C4.82,8,2.33,9.33,2,9.56.54,10.58-.19,11.41,0,12.83,3.55,13.27,8.41,13.42,9.7,12.27Z"/><path class="cls-1" d="M4.92,14.17a40.81,40.81,0,0,1-4.55-.29,1.76,1.76,0,0,0,1.38.95,37,37,0,0,0,3.76.24,6.47,6.47,0,0,0,1.86-.19A3,3,0,0,0,8.63,13.8,15.81,15.81,0,0,1,4.92,14.17Z"/><path class="cls-1" d="M16.47,6.12a8,8,0,0,0-2.71,1.52A5.19,5.19,0,0,0,12.1,9.8h0c.27.44.52.68,1,.49l2.74-1.88A1.29,1.29,0,0,0,16.48,7,3.29,3.29,0,0,0,16.47,6.12Z"/></g></g></svg>