<svg xmlns="http://www.w3.org/2000/svg" viewBox="0 0 14.94 15.42"><defs><style>.cls-1{fill:#fefbfb;}</style></defs><g id="Ebene_2" data-name="Ebene 2"><g id="Ebene_1-2" data-name="Ebene 1"><path class="cls-1" d="M12.66,9.76A15.73,15.73,0,0,1,14.8,7.52c0,.1-.07.2-.12.3l0,.14a30.54,30.54,0,0,0-.84,5.23c0,.45,0,.93,0,1.43a.3.3,0,0,1-.28.3.31.31,0,0,1-.32-.27,10,10,0,0,1,0-1.47A8.89,8.89,0,0,0,12.66,9.76Z"/><path class="cls-1" d="M0,13.93c0,.37.31.89,1.52,1.22a8.78,8.78,0,0,0,2.29.27l.81,0h.07a12.85,12.85,0,0,0,2.18-.23l.31-.07A2.87,2.87,0,0,0,9.57,13.5a17.08,17.08,0,0,1,1.61-3.23A14.46,14.46,0,0,1,14.94,6.1c-.13-1.78-.49-5.49-1.15-6A.45.45,0,0,0,13.41,0c-.34.07-1.89.57-3.57,1.12q-.45.14-.9.3L5.25,2.66a2.39,2.39,0,0,0-1.57-.35A1.19,1.19,0,0,0,2.85,3a.81.81,0,0,0,.21,1,3.15,3.15,0,0,0,1.74.72,3.87,3.87,0,0,1-1.28.17A.5.5,0,0,0,3,5.3a.51.51,0,0,0,.47.53h.2a4.85,4.85,0,0,0,1.18-.14v.53H4.55a.5.5,0,0,0,0,1h.29c0,.19,0,.38,0,.57H4.55a.5.5,0,0,0-.49.5.51.51,0,0,0,.5.5h.26V9.1l0,.26H4.51a.49.49,0,0,0-.49.5.5.5,0,0,0,.5.5h.15c0,.25-.09.49-.14.73a1.27,1.27,0,0,1-.82.84h0C1.71,12.18-.07,12.89,0,13.93ZM5,3.68a2.63,2.63,0,0,1-1.16-.37.07.07,0,0,1,.06,0H4A2.21,2.21,0,0,1,5,3.68Z"/></g></g></svg>