<svg xmlns="http://www.w3.org/2000/svg" viewBox="0 0 20.52 9.11"><defs><style>.cls-1{fill:#fefbfb;}</style></defs><g id="Ebene_2" data-name="Ebene 2"><g id="Ebene_1-2" data-name="Ebene 1"><path class="cls-1" d="M14.82,6.56c-1.94.4-5,.93-5.63.94C8,7.44,1.28,6.38.28,5.86A2.38,2.38,0,0,1,.61,4.68,2,2,0,0,1,2,3.62c1.34-.17,2.5-.34,3.37-.5a.49.49,0,0,0,.24.23c.15.06,3.73,1.52,6,1a.48.48,0,0,1,.42.08,1.69,1.69,0,0,1,.41,1.3.5.5,0,0,0,1,0,2.58,2.58,0,0,0-.79-2.09,1.49,1.49,0,0,0-1.28-.26A9.34,9.34,0,0,1,6.9,2.75l.11,0c.18-.09.57-.35,1-.65a.49.49,0,0,1,.73-.66l.12.12.21-.14a.5.5,0,0,1,0-.67.51.51,0,0,1,.71,0L10,.84,10.21.7A.5.5,0,0,1,11,.15l.08.08c.49-.21.74-.22.9-.07l.22.23a4.21,4.21,0,0,0,3.56,1.69,10.23,10.23,0,0,0,3.67-.94.29.29,0,0,1,.24,0,.28.28,0,0,1,.17.15,6.85,6.85,0,0,1,.43,4.57A35,35,0,0,1,14.82,6.56Z"/><path class="cls-1" d="M8.8,8.46a1.09,1.09,0,0,1-.29.44.87.87,0,0,1-.59.21H7.8c-.39,0-2.29-.35-4.06-.66C0,7.8,0,7.72,0,7.41,0,7.3,0,7,0,6.79,2,7.6,7.4,8.29,8.8,8.46Z"/><path class="cls-1" d="M15,7.55A39.18,39.18,0,0,0,19.83,7a3.47,3.47,0,0,0,0,1,.42.42,0,0,1-.07.31c-.26.34-2,.52-5.1.54h0a.29.29,0,0,1-.29-.26L14.2,7.7Z"/></g></g></svg>