<svg xmlns="http://www.w3.org/2000/svg" viewBox="0 0 15.95 17.7"><defs><style>.cls-1{fill:#fefbfb;}</style></defs><g id="Ebene_2" data-name="Ebene 2"><g id="Ebene_1-2" data-name="Ebene 1"><path class="cls-1" d="M15.45,9.81h-1.8V.5a.5.5,0,0,0-.5-.5.5.5,0,0,0-.5.5v1H3.37V.5a.5.5,0,0,0-.5-.5.5.5,0,0,0-.5.5V9.81H.5a.5.5,0,0,0-.5.5.5.5,0,0,0,.5.5H4.85l.28.25a.36.36,0,0,0,.07.1l2,1.82L3,16.83a.5.5,0,0,0,0,.71.49.49,0,0,0,.37.16.5.5,0,0,0,.34-.13l.32-.3a.35.35,0,0,0,.13-.08L8,13.69l4.22,3.88a.51.51,0,0,0,.71,0,.51.51,0,0,0,0-.71L8.7,13l2.42-2.2h4.33a.5.5,0,0,0,.5-.5A.5.5,0,0,0,15.45,9.81Zm-5.91,1L7.92,12.3,6.29,10.81Zm3.11-4.69V9.81H3.37V6.12Z"/></g></g></svg>