<svg xmlns="http://www.w3.org/2000/svg" viewBox="0 0 16.73 14.61"><defs><style>.cls-1{fill:#fefbfb;}</style></defs><g id="Ebene_2" data-name="Ebene 2"><g id="Ebene_1-2" data-name="Ebene 1"><path class="cls-1" d="M16.4,2.18,13.46,1.13V.5A.5.5,0,0,0,13,0h0a.5.5,0,0,0-.5.5v.66l-3,1a.5.5,0,1,0,.32.94l2.63-.91V12.9H11.19a.5.5,0,0,0-.5.5.5.5,0,0,0,.5.5h3.52a.5.5,0,0,0,.5-.5.51.51,0,0,0-.5-.5H13.44V2.19l2.62.93a.45.45,0,0,0,.16,0,.5.5,0,0,0,.17-1Z"/><path class="cls-1" d="M9.66,13.41l-.84-.74A4.52,4.52,0,0,0,9.68,10a4.59,4.59,0,1,0-8.45,2.47l-1.06.93a.5.5,0,0,0,0,.71.48.48,0,0,0,.37.17.46.46,0,0,0,.33-.13l1-.9a4.53,4.53,0,0,0,6.3.15l.85.75a.46.46,0,0,0,.33.13.5.5,0,0,0,.33-.88Zm-4.3.39A1.62,1.62,0,1,1,6.72,12,1.62,1.62,0,0,1,5.36,13.8Z"/></g></g></svg>