<svg xmlns="http://www.w3.org/2000/svg" viewBox="0 0 15.88 16.2"><defs><style>.cls-1,.cls-2{fill:#fff;}.cls-2{fill-rule:evenodd;}</style></defs><g id="Ebene_2" data-name="Ebene 2"><g id="Ebene_1-2" data-name="Ebene 1"><path class="cls-1" d="M15.74.15a.5.5,0,0,0-.71,0l-.44.44L14.31.31a.5.5,0,0,0-.71,0,.51.51,0,0,0,0,.71l.28.28-.53.52-.27-.28a.51.51,0,0,0-.71,0,.5.5,0,0,0,0,.71l.28.28L7.49,7.69a.5.5,0,0,0,.35.85.51.51,0,0,0,.36-.15l5.15-5.15.28.27a.51.51,0,0,0,.36.15.5.5,0,0,0,.35-.85l-.28-.28L14.59,2l.28.28a.48.48,0,0,0,.7,0,.5.5,0,0,0,0-.71l-.27-.28.44-.44A.5.5,0,0,0,15.74.15Z"/><path class="cls-2" d="M7.84,9.54A1.51,1.51,0,0,1,6.79,7l1-1c-.58-.28-1.24-.49-1.57-.25-.7.48-.66,1.59-1.46,2.07S1.57,8.1.42,9.43c-.76.94-.5,2.9.84,4.4S4.74,16.7,6,16s1.4-3.29,2-4.12,1.87-.32,2.6-1.69C9.93,9.58,7.92,9.54,7.84,9.54Zm-3.49,4a.49.49,0,0,1-.35.15.51.51,0,0,1-.36-.15L2.38,12.24a.5.5,0,0,1,0-.71.51.51,0,0,1,.71,0L4.35,12.8A.48.48,0,0,1,4.35,13.5Zm1.57.74a.52.52,0,1,1,.52-.51A.51.51,0,0,1,5.92,14.24Z"/></g></g></svg>