<svg xmlns="http://www.w3.org/2000/svg" viewBox="0 0 19.52 18.66"><defs><style>.cls-1{fill:#fefbfb;}</style></defs><g id="Ebene_2" data-name="Ebene 2"><g id="Ebene_1-2" data-name="Ebene 1"><path class="cls-1" d="M5.62,15.36a1.22,1.22,0,0,1,.34-.9A7.33,7.33,0,0,1,2.68,9.68L1.83,8.46H1.56a8.3,8.3,0,0,0,4.07,7S5.62,15.38,5.62,15.36Z"/><path class="cls-1" d="M5.35,1.62a1.3,1.3,0,0,1,.54.55A7.26,7.26,0,0,1,13.45,2l1-.06.23-.37A8.28,8.28,0,0,0,9.84,0,8.18,8.18,0,0,0,5.08,1.52,1,1,0,0,1,5.35,1.62Z"/><path class="cls-1" d="M17.75,8.66a1.29,1.29,0,0,1-.63-.17,7.3,7.3,0,0,1-3.56,6.07l-.25.51.34.58a8.3,8.3,0,0,0,4.47-7A1.19,1.19,0,0,1,17.75,8.66Z"/><path class="cls-1" d="M13.22,16.92l-1-1.81.9-1.88a.26.26,0,0,0,0-.27.25.25,0,0,0-.26-.09l-2,.43-1.5-1.44A.27.27,0,0,0,9,11.8a.26.26,0,0,0-.17.22l-.22,2.07-1.84,1a.26.26,0,0,0-.13.24.25.25,0,0,0,.15.23l1.9.85.38,2.05a.28.28,0,0,0,.18.2h.08a.27.27,0,0,0,.19-.08L10.89,17l2.07.28a.28.28,0,0,0,.25-.12A.26.26,0,0,0,13.22,16.92Z"/><path class="cls-1" d="M18,7.38l-.18-2.07L19.43,4a.25.25,0,0,0-.11-.45l-2-.47-.76-1.94A.28.28,0,0,0,16.31,1a.27.27,0,0,0-.25.12L15,2.87,12.91,3a.24.24,0,0,0-.22.16.27.27,0,0,0,0,.27L14.1,5l-.52,2a.24.24,0,0,0,.08.26l.06,0a.26.26,0,0,0,.21,0l1.92-.81,1.76,1.11a.24.24,0,0,0,.27,0A.27.27,0,0,0,18,7.38Z"/><path class="cls-1" d="M4,9.09l.63-2,2-.61a.28.28,0,0,0,.18-.21A.28.28,0,0,0,6.69,6L5,4.82,5,2.74a.27.27,0,0,0-.14-.24.28.28,0,0,0-.28,0L2.94,3.77,1,3.09a.27.27,0,0,0-.27.06.27.27,0,0,0-.06.27l.66,2L.05,7.06a.24.24,0,0,0,0,.27.16.16,0,0,0,0,.07.27.27,0,0,0,.19.08l2.09,0,1.19,1.7a.29.29,0,0,0,.26.11A.28.28,0,0,0,4,9.09Z"/></g></g></svg>