<svg xmlns="http://www.w3.org/2000/svg" viewBox="0 0 18.18 15.93"><defs><style>.cls-1{fill:#fefbfb;}</style></defs><g id="Ebene_2" data-name="Ebene 2"><g id="Ebene_1-2" data-name="Ebene 1"><path class="cls-1" d="M6,13.13H4.15a.51.51,0,0,0-.5.5V15a.51.51,0,0,0,.5.5h.42a.49.49,0,0,0,1,0H6a.51.51,0,0,0,.5-.5V13.63A.51.51,0,0,0,6,13.13Z"/><path class="cls-1" d="M17.86,7.9,16.64,6.77a1,1,0,0,0-.3-.19l-.83-.35A1,1,0,0,0,15,5.54a1,1,0,0,0-1,.07l-1-.4a1,1,0,0,0-1.31.53l-.46,1.11a1,1,0,0,0,0,.77,1,1,0,0,0,.54.54l.64.27L9.58,14.31a1,1,0,1,0,1.8.88l2.93-6,.8.33a1.17,1.17,0,0,0,.37.08l1.68,0a1,1,0,0,0,.35-.06,1,1,0,0,0,.6-.57A1,1,0,0,0,17.86,7.9Z"/><path class="cls-1" d="M5.06,0A5.07,5.07,0,0,0,0,5.06c0,1.56,1,2.87,1.91,4a5,5,0,0,1,1.34,2.47.5.5,0,0,0,.5.5H6.36a.5.5,0,0,0,.5-.5A5,5,0,0,1,8.2,9.09c.9-1.16,1.91-2.47,1.91-4A5.06,5.06,0,0,0,5.06,0ZM8.57,5.23v0L7,9a.5.5,0,1,1-.93-.38l.8-1.94-.29,0A2.26,2.26,0,0,1,5.12,6a1.92,1.92,0,0,1-1.55.66l-.29,0,.9,2.1a.5.5,0,0,1-.26.65.45.45,0,0,1-.2,0,.5.5,0,0,1-.46-.3L1.67,5.42a.93.93,0,0,1-.09-.22.5.5,0,0,1,.93-.35L2.59,5a1.18,1.18,0,0,0,1,.62.9.9,0,0,0,1-.74A.53.53,0,0,1,5,4.55a.49.49,0,0,1,.5.31,1.39,1.39,0,0,0,1.07.8,1.24,1.24,0,0,0,1-.78v0a.5.5,0,0,1,.65-.27A.49.49,0,0,1,8.57,5.23Z"/></g></g></svg>