<svg xmlns="http://www.w3.org/2000/svg" viewBox="0 0 3.99 20.18"><defs><style>.cls-1{fill:#fff;}</style></defs><g id="Ebene_2" data-name="Ebene 2"><g id="Ebene_1-2" data-name="Ebene 1"><path class="cls-1" d="M0,5a.5.5,0,0,0,.5.5H1V18.19H3V5.51h.49a.5.5,0,0,0,0-1H3.3A2,2,0,0,0,4,3,3.13,3.13,0,0,0,3,.84,1,1,0,0,0,2,0,1,1,0,0,0,1,.84,3.17,3.17,0,0,0,0,3,2,2,0,0,0,.69,4.51H.5A.5.5,0,0,0,0,5Zm2,9.23a.59.59,0,1,1,.58-.58A.58.58,0,0,1,2,14.24ZM2,11.1a.59.59,0,1,1,.58-.58A.58.58,0,0,1,2,11.1ZM2,8a.59.59,0,1,1,.58-.58A.58.58,0,0,1,2,8ZM2,1.09a.78.78,0,1,1-.79.78A.78.78,0,0,1,2,1.09Z"/><path class="cls-1" d="M3.51,19.19h-3a.5.5,0,0,0,0,1h3a.5.5,0,0,0,.5-.5A.49.49,0,0,0,3.51,19.19Z"/></g></g></svg>