<svg xmlns="http://www.w3.org/2000/svg" viewBox="0 0 16.15 17.29"><defs><style>.cls-1{fill:#fff;}</style></defs><g id="Ebene_2" data-name="Ebene 2"><g id="Ebene_1-2" data-name="Ebene 1"><path class="cls-1" d="M16.13,7.81V6.86a.29.29,0,0,0-.3-.3,4.25,4.25,0,0,1-.15-.79c-.08-.79-1-.77-2-.75C12,5,10.73,5,10.44,3.49,9.79.3,6.1,0,6.07,0a.27.27,0,0,0-.28.15L2,6.56H1.67a.31.31,0,0,0-.3.3v.95Z"/><path class="cls-1" d="M15,8.81s0,0,0,.06a.6.6,0,0,1-.6.6H2.24a.6.6,0,0,1-.6-.6,0,0,0,0,1,0,0H.35a.3.3,0,0,0-.3.29l0,1.19a.35.35,0,0,0,.08.22.31.31,0,0,0,.22.09H1.82L1.94,17a.29.29,0,0,0,.3.29h0a.3.3,0,0,0,.3-.31l-.12-6.36H14.74V17a.3.3,0,0,0,.3.3.29.29,0,0,0,.3-.3V10.62h.51a.32.32,0,0,0,.21-.08.31.31,0,0,0,.09-.22V8.81Z"/></g></g></svg>