<svg xmlns="http://www.w3.org/2000/svg" viewBox="0 0 14.16 16.6"><defs><style>.cls-1{fill:#fefbfb;}</style></defs><g id="Ebene_2" data-name="Ebene 2"><g id="Ebene_1-2" data-name="Ebene 1"><path class="cls-1" d="M7,4.82a.5.5,0,0,1-.43-.25.5.5,0,0,1,.18-.68L13.41.07a.49.49,0,0,1,.68.18.49.49,0,0,1-.18.68L7.29,4.75A.43.43,0,0,1,7,4.82Z"/><path class="cls-1" d="M6.35,7.35A.5.5,0,0,1,6,7.24L.18,2.33a.51.51,0,0,1-.06-.71.49.49,0,0,1,.7-.06L6.67,6.47a.5.5,0,0,1-.32.88Z"/><path class="cls-1" d="M13.32,15.65V10.09a.5.5,0,0,0-.21-.95h-12a.5.5,0,0,0-.2.95v5.56a.49.49,0,0,0-.29.45.5.5,0,0,0,.5.5h12a.5.5,0,0,0,.5-.5A.49.49,0,0,0,13.32,15.65ZM6.78,15.6,5.43,10.14H8.9L7.45,15.6Zm-3.39,0H2.72L1.35,10.14H4.78Zm7.59,0L9.76,10.14h3.16L11.65,15.6Z"/></g></g></svg>