<svg xmlns="http://www.w3.org/2000/svg" viewBox="0 0 13.39 14.78"><defs><style>.cls-1{fill:#fff;}</style></defs><g id="Ebene_2" data-name="Ebene 2"><g id="Ebene_1-2" data-name="Ebene 1"><path class="cls-1" d="M13.16,0H11.59V9.82a.22.22,0,0,1-.22.23h-.59v4.51a.22.22,0,0,0,.22.22h2.16a.22.22,0,0,0,.23-.22V.23A.23.23,0,0,0,13.16,0Z"/><path class="cls-1" d="M5.62,10.05a.23.23,0,0,1-.23-.23V0h-1V9.82a.23.23,0,0,1-.23.23H3.59v4.51a.22.22,0,0,0,.23.22H6a.23.23,0,0,0,.23-.22V10.05Z"/><path class="cls-1" d="M2,10.05a.22.22,0,0,1-.22-.23V0H.23A.23.23,0,0,0,0,.23V14.56a.22.22,0,0,0,.23.22H2.39a.22.22,0,0,0,.22-.22V10.05Z"/><path class="cls-1" d="M9.21,10.05A.23.23,0,0,1,9,9.82V0H8V9.82a.22.22,0,0,1-.22.23H7.19v4.51a.22.22,0,0,0,.22.22H9.57a.22.22,0,0,0,.23-.22V10.05Z"/></g></g></svg>