<svg xmlns="http://www.w3.org/2000/svg" viewBox="0 0 16.66 17.01"><defs><style>.cls-1{fill:#fefbfb;}</style></defs><g id="Ebene_2" data-name="Ebene 2"><g id="Ebene_1-2" data-name="Ebene 1"><path class="cls-1" d="M16.64,8.48a13.09,13.09,0,0,0-1.11-5.4,1.76,1.76,0,1,0-1.77.32H11.28V3a.51.51,0,0,0-.5-.5.5.5,0,0,0-.5.5V3.4H8.65V2.56a.5.5,0,0,0-.5-.5.51.51,0,0,0-.5.5V3.4H5.89v-1a.5.5,0,0,0-.5-.5.5.5,0,0,0-.5.5v1H2.66A1.77,1.77,0,1,0,.71,2.89,25.77,25.77,0,0,0,0,8.36,8.81,8.81,0,0,0,2.2,14.73,8.14,8.14,0,0,0,8.34,17a8.23,8.23,0,0,0,6.14-2.22A8.69,8.69,0,0,0,16.64,8.48ZM1.69,8.4a20.49,20.49,0,0,1,.67-4.06H4.89v9.35a7.24,7.24,0,0,1-1.45-.89A5.61,5.61,0,0,1,1.69,8.4Zm4.2,5.67V4.34H7.65v10A6.56,6.56,0,0,1,5.89,14.07Zm2.76.29v-10h1.63v9.84A6.37,6.37,0,0,1,8.65,14.36Zm4.49-1.67a6.88,6.88,0,0,1-1.86,1.16V4.34h2.88a12.62,12.62,0,0,1,.73,3.81A6,6,0,0,1,13.14,12.69Z"/></g></g></svg>