<svg xmlns="http://www.w3.org/2000/svg" viewBox="0 0 16.34 16.18"><defs><style>.cls-1{fill:#fefbfb;}</style></defs><g id="Ebene_2" data-name="Ebene 2"><g id="Ebene_1-2" data-name="Ebene 1"><path class="cls-1" d="M12.82,0a3.59,3.59,0,0,0-1.73.44l4.8,4.83a3.51,3.51,0,0,0,.45-1.7A3.55,3.55,0,0,0,12.82,0Z"/><path class="cls-1" d="M9.28,3.55c-.17,1,2.62,3.72,3.54,3.54a3.53,3.53,0,0,0,2.47-1l-5-5A3.53,3.53,0,0,0,9.28,3.55Z"/><path class="cls-1" d="M11.5,7.69A8.21,8.21,0,0,1,8.87,5a.4.4,0,0,0-.29-.18A.37.37,0,0,0,8.27,5L.1,13.9a.36.36,0,0,0,0,.51l1.62,1.66a.39.39,0,0,0,.27.11.38.38,0,0,0,.24-.09l9.3-7.8a.38.38,0,0,0,0-.6Zm-2.39.75L5.9,11.31a.61.61,0,0,1-.41.16.59.59,0,0,1-.43-.22.61.61,0,0,1,.06-.86L8.33,7.51a.57.57,0,0,1,.84.06A.63.63,0,0,1,9.11,8.44Z"/></g></g></svg>