<svg xmlns="http://www.w3.org/2000/svg" viewBox="0 0 14.65 16.36"><defs><style>.cls-1{fill:#fff;}.cls-2{fill:#fffcfc;}</style></defs><g id="Ebene_2" data-name="Ebene 2"><g id="Ebene_1-2" data-name="Ebene 1"><path class="cls-1" d="M2.4,13.68a.22.22,0,0,1-.23-.21h0V8.08H.46a.22.22,0,0,0-.22.22h0v7.82a.24.24,0,0,0,.22.23H2.82a.23.23,0,0,0,.23-.23V13.68Z"/><path class="cls-1" d="M6.26,13.68A.22.22,0,0,1,6,13.47H6V8.08H5v5.4a.24.24,0,0,1-.23.22H4.15v2.43a.24.24,0,0,0,.22.23H6.73A.23.23,0,0,0,7,16.13V13.68Z"/><path class="cls-1" d="M14.43,8.08H12.72v5.4a.22.22,0,0,1-.22.22h-.66v2.43a.23.23,0,0,0,.23.23h2.36a.24.24,0,0,0,.22-.23V8.31a.22.22,0,0,0-.21-.23Z"/><path class="cls-1" d="M10.13,13.68a.22.22,0,0,1-.22-.22V8.08H8.85v5.4a.22.22,0,0,1-.22.22H8v2.43a.26.26,0,0,0,.23.23h2.36a.26.26,0,0,0,.23-.23V13.68Z"/><path class="cls-2" d="M3.56,2.32V1.49H.5a.5.5,0,0,0,0,1H3.58A1,1,0,0,1,3.56,2.32Z"/><path class="cls-2" d="M14,1.49H6.56v1H14a.5.5,0,0,0,0-1Z"/><path class="cls-2" d="M5.06,3.89a.5.5,0,0,1-.5-.5V.5a.5.5,0,0,1,1,0V3.39A.5.5,0,0,1,5.06,3.89Z"/><circle class="cls-2" cx="2.67" cy="5.74" r="1.11"/><circle class="cls-2" cx="7.58" cy="5.74" r="1.11"/><circle class="cls-2" cx="12.2" cy="5.74" r="1.11"/></g></g></svg>