<svg xmlns="http://www.w3.org/2000/svg" viewBox="0 0 20.2 7.03"><defs><style>.cls-1{fill:#fefbfb;}</style></defs><g id="Ebene_2" data-name="Ebene 2"><g id="Ebene_1-2" data-name="Ebene 1"><path class="cls-1" d="M20.2,3H18.91a3.5,3.5,0,0,0-6.82-.49,3.1,3.1,0,0,0-1.85-.7,3.8,3.8,0,0,0-2.07.76A3.49,3.49,0,0,0,1.34,3H0V4H1.34a3.49,3.49,0,0,0,7-.25,3.34,3.34,0,0,1,2-.94A2.6,2.6,0,0,1,12,3.73a3.5,3.5,0,0,0,7,.28H20.2ZM4.8,6A2.52,2.52,0,1,1,7.31,3.51,2.51,2.51,0,0,1,4.8,6ZM15.44,6A2.52,2.52,0,1,1,18,3.51,2.52,2.52,0,0,1,15.44,6Z"/></g></g></svg>