<svg xmlns="http://www.w3.org/2000/svg" viewBox="0 0 15.62 20.82"><defs><style>.cls-1{fill:#fefbfb;}</style></defs><g id="Ebene_2" data-name="Ebene 2"><g id="Ebene_1-2" data-name="Ebene 1"><path class="cls-1" d="M15.43,12.29,10.17,8.13a.5.5,0,0,0-.62.79l.36.28c.25.57-.18,1-.39,2.27-.25,1.52-.28,5.47-1.44,5.47-.42,0-.56-3.77-.6-6.58h.07a.5.5,0,0,0,.5-.5.5.5,0,0,0-.5-.5H7.47c0-.16,0-.32,0-.47h0a.5.5,0,0,0,.5-.5.51.51,0,0,0-.5-.5h0V7.42h0a.5.5,0,0,0,0-1h0c0-.16,0-.32,0-.48A.5.5,0,0,0,8,5.45.51.51,0,0,0,7.57,5c0-.49,0-1,0-1.48,0-2-.18-3.08-1.36-3.45S3.84,2.28,2.73,3V4C4.1,3.62,4.85,1.86,5.51,2S4.44,11,3.73,15.58s4.08,6.24,6.86,4.64,2.1-5,2.76-6.58c.3-.69,1.18-.61,1.51-.55a.38.38,0,0,0,.1,0h0s.1,0,.15,0a.53.53,0,0,0,.4-.19A.5.5,0,0,0,15.43,12.29Z"/><path class="cls-1" d="M1.73,3.18A5.2,5.2,0,0,1,.57,2.82c-.66-.27-.73.08-.29.52A3.56,3.56,0,0,0,1.73,4Z"/></g></g></svg>