<svg xmlns="http://www.w3.org/2000/svg" viewBox="0 0 32 32"><defs><style>.cls-1{fill:#e84040;}.cls-2,.cls-3{fill:#fff;}.cls-3{fill-rule:evenodd;}</style></defs><g id="Ebene_2" data-name="Ebene 2"><g id="Ebene_1-2" data-name="Ebene 1"><circle class="cls-1" cx="16" cy="16" r="16"/><path class="cls-2" d="M22.75,8.38a.51.51,0,0,0-.71,0l-.44.45-.28-.28a.5.5,0,0,0-.71,0,.5.5,0,0,0,0,.7l.28.28-.53.53-.28-.28a.5.5,0,0,0-.71.71l.28.28-5.17,5.17a.51.51,0,0,0,0,.71.51.51,0,0,0,.36.15.5.5,0,0,0,.35-.15l5.17-5.17.28.28a.51.51,0,0,0,.36.15.5.5,0,0,0,.35-.15.51.51,0,0,0,0-.71l-.28-.28.53-.53.28.28a.5.5,0,0,0,.35.15.51.51,0,0,0,.36-.15.51.51,0,0,0,0-.71l-.28-.28.44-.44A.5.5,0,0,0,22.75,8.38Z"/><path class="cls-3" d="M15.89,17.36a1.5,1.5,0,1,1-2.11-2.13l.93-.92A1.46,1.46,0,0,0,13.1,14C12,14.7,11.74,15.6,11,16.08s-2.41.28-3.55,1.61c-.77.94-.69,3.11.94,4.81C9.73,24,11.77,24.43,13,23.75s1.67-3,2.28-3.81.3-.18,1.58-1.55a1.35,1.35,0,0,0,0-2Zm-4.56,4.41a.48.48,0,0,1-.7,0L9.36,20.51a.5.5,0,0,1,.71-.71l1.26,1.27A.48.48,0,0,1,11.33,21.77Zm.81-1.36a1.4,1.4,0,1,1,1.4-1.4A1.4,1.4,0,0,1,12.14,20.41Z"/></g></g></svg>