<svg xmlns="http://www.w3.org/2000/svg" viewBox="0 0 32 32"><defs><style>.cls-1{fill:#e84040;}.cls-2{fill:#fefbfb;}</style></defs><g id="Ebene_2" data-name="Ebene 2"><g id="Ebene_1-2" data-name="Ebene 1"><circle class="cls-1" cx="16" cy="16" r="16"/><path class="cls-2" d="M21.49,11.71c-.19-1.45-2-2.79-2.09-2.84a.29.29,0,0,0-.24,0A.25.25,0,0,0,19,9a13.12,13.12,0,0,0-1.13,3.19l-.15.53a13,13,0,0,1-3.76-3.51A28.74,28.74,0,0,1,19,8.32h0a.26.26,0,0,0,.12-.05l0,0a.08.08,0,0,0,0,0l0,0s0,0,0-.05l0,0V8s0,0,0,0l0-.07,0-.06s0,0-.06,0l0,0a24.77,24.77,0,0,0-4.77-1.9.3.3,0,0,0-.36.23.3.3,0,0,0,.23.36,18.39,18.39,0,0,1,2.87,1c-2.11-.29-2.74-.41-2.75-.41a.3.3,0,0,0-.12.59s.56.11,2.3.34a12.47,12.47,0,0,0-3.12.76s0,.05-.07.07-.06.05-.07.09,0,.07,0,.12,0,.06,0,.09.69,1.71,4.29,4.16a24.14,24.14,0,0,1-1.45,3.92c-1.21,2.53-2.24,3.2-3.5,3.47a.29.29,0,0,0-.24.31,8.07,8.07,0,0,0,.92,2.77c.2.42.41.86.59,1.33a1.65,1.65,0,0,0,1,1,2.2,2.2,0,0,0,.76.12,4.33,4.33,0,0,0,2-.54c.62-.36.65-2.39.48-6.25,0-.47,0-.86,0-1.11C18,17,20.35,14,21.11,13.06A1.69,1.69,0,0,0,21.49,11.71Z"/></g></g></svg>