<svg xmlns="http://www.w3.org/2000/svg" viewBox="0 0 32 32"><defs><style>.cls-1{fill:#e84040;}.cls-2{fill:#fefbfb;}</style></defs><g id="Ebene_2" data-name="Ebene 2"><g id="Ebene_1-2" data-name="Ebene 1"><circle class="cls-1" cx="16" cy="16" r="16"/><path class="cls-2" d="M16.2,15.76a1.38,1.38,0,0,1-.63.36.67.67,0,0,1-.3.08h0l-.1,0a1.48,1.48,0,0,1-1.05-.43,1.5,1.5,0,0,1,0-2.12l1.88-1.9-.14,0a3.47,3.47,0,0,0-.85-.1,3.36,3.36,0,0,0-2.12.72l-.29.25a.31.31,0,0,0-.08.37,1.72,1.72,0,0,1-.88,2.27,1.76,1.76,0,0,1-.7.15,1.72,1.72,0,0,1-1-.3A.28.28,0,0,0,9.72,15a.37.37,0,0,0-.2.07l-.37.31A3.73,3.73,0,0,0,7.92,19.2s0,.07.06.17l1.89-1.88a1.06,1.06,0,0,1,1.52,0l.93.93a1.07,1.07,0,0,1,0,1.52l-1.9,1.91.21.07a3.65,3.65,0,0,0,.93.12,3.72,3.72,0,0,0,2.87-1.35l.31-.37a.33.33,0,0,0,0-.38,1.71,1.71,0,0,1,.43-2.39,1.68,1.68,0,0,1,1-.31,1.78,1.78,0,0,1,.71.15.31.31,0,0,0,.13,0,.32.32,0,0,0,.24-.11l.24-.3a3.56,3.56,0,0,0,.56-3.13Z"/><path class="cls-2" d="M15.66,24.12A.51.51,0,0,1,15.3,24a.51.51,0,0,1,0-.71l9.29-9.42a.5.5,0,0,1,.72.7L16,24A.5.5,0,0,1,15.66,24.12Z"/><path class="cls-2" d="M22.08,9l-.29-.3L22,8.45a.5.5,0,0,0,0-.71.49.49,0,0,0-.7,0L21.08,8l-.28-.27a.5.5,0,0,0-.71,0,.5.5,0,0,0,0,.7l.29.29L20.07,9l-.29-.29a.5.5,0,0,0-.71.71l.3.29-4.6,4.66a.5.5,0,0,0,0,.71.52.52,0,0,0,.35.14.51.51,0,0,0,.36-.15l4.58-4.65.28.28a.5.5,0,0,0,.36.14.5.5,0,0,0,.35-.85l-.28-.28.3-.32.29.29a.51.51,0,0,0,.36.15A.5.5,0,0,0,22.08,9Z"/><path class="cls-2" d="M11.72,19l-.93-.93a.22.22,0,0,0-.32,0L8.15,20.41a.24.24,0,0,0,0,.33l.08.08-.69.7a.5.5,0,0,0,.7.71l.7-.7.14.14a.23.23,0,0,0,.16.06.25.25,0,0,0,.16-.06l2.32-2.33A.22.22,0,0,0,11.72,19Z"/></g></g></svg>