<svg xmlns="http://www.w3.org/2000/svg" viewBox="0 0 32 32"><defs><style>.cls-1{fill:#e84040;}.cls-2{fill:#fefbfb;}</style></defs><g id="Ebene_2" data-name="Ebene 2"><g id="Ebene_1-2" data-name="Ebene 1"><circle class="cls-1" cx="16" cy="16" r="16"/><path class="cls-2" d="M26.44,14l-3-5.32a.51.51,0,0,0-.68-.19.5.5,0,0,0-.19.68l.13.23c-.33.83-1.44,3.44-2.66,4.14l-4,2.32-.4-.71a.5.5,0,1,0-.87.48l.4.73-.95.55-.41-.74a.5.5,0,1,0-.87.48l.42.76-1,.56L12,17.2a.51.51,0,0,0-.68-.2.5.5,0,0,0-.19.68l.43.79-4,2.33a.56.56,0,0,0-.2.76.54.54,0,0,0,.76.2l.85-.49a2.51,2.51,0,0,0,3.76,2.34l7.25-4.18a2.55,2.55,0,0,0,1-1.06A2.52,2.52,0,0,0,19.77,15l.85-.49c1.18-.67,3.85-.37,4.83-.23l.12.21a.49.49,0,0,0,.44.26.44.44,0,0,0,.24-.07A.49.49,0,0,0,26.44,14Zm-6.57,2.55a1.39,1.39,0,0,1-.51,1.91l-7.25,4.19a1.4,1.4,0,0,1-1.4-2.42l1.36-.79.35.63a.51.51,0,0,0,.44.26.44.44,0,0,0,.24-.07.5.5,0,0,0,.2-.68l-.36-.64,1-.56.36.66a.5.5,0,0,0,.88-.49l-.38-.67,1-.55.38.69a.53.53,0,0,0,.44.26.45.45,0,0,0,.25-.07.5.5,0,0,0,.19-.68l-.39-.7L18,16A1.4,1.4,0,0,1,19.87,16.55Z"/></g></g></svg>