<svg xmlns="http://www.w3.org/2000/svg" viewBox="0 0 32 32"><defs><style>.cls-1{fill:#e84040;}.cls-2{fill:#fefbfb;}</style></defs><g id="Ebene_2" data-name="Ebene 2"><g id="Ebene_1-2" data-name="Ebene 1"><circle class="cls-1" cx="16" cy="16" r="16"/><path class="cls-2" d="M22.45,23.05s0,0,0-.06l0-.09v0l-5-16.57a.4.4,0,0,0-.14-.22,2.7,2.7,0,0,0-1.76-.53,2.81,2.81,0,0,0-1.71.6.51.51,0,0,0-.2.28L8.74,23s0,0,0,.06a.24.24,0,0,0,0,.08s0,0,0,.05a.29.29,0,0,0,0,.09c.32,1.3,4.85,1.45,6.85,1.45s6.55-.15,6.84-1.46a.29.29,0,0,0,0-.09v0A.29.29,0,0,0,22.45,23.05Zm-6.85.68a19.81,19.81,0,0,1-5.6-.59,14,14,0,0,1,3.16-.51l.32-2.13L11.74,19a.26.26,0,0,1,.12-.44l2.34-.39,1-2A.25.25,0,0,1,15.4,16a.32.32,0,0,1,.23.13l1.11,2,2.35.26a.24.24,0,0,1,.21.16.25.25,0,0,1-.06.26L17.6,20.37l.46,2.2s0,0,0,.07a13.47,13.47,0,0,1,3.13.5A19.72,19.72,0,0,1,15.6,23.73Z"/><path class="cls-2" d="M14.26,22.58c.42,0,.86,0,1.34,0s1.06,0,1.54,0l-1.56-.72Z"/></g></g></svg>