<svg xmlns="http://www.w3.org/2000/svg" viewBox="0 0 32 32"><defs><style>.cls-1{fill:#e84040;}.cls-2{fill:#fefbfb;}</style></defs><g id="Ebene_2" data-name="Ebene 2"><g id="Ebene_1-2" data-name="Ebene 1"><circle class="cls-1" cx="16" cy="16" r="16"/><path class="cls-2" d="M19.06,10.44H12.4a.57.57,0,0,0-.57.57V15.3a.57.57,0,0,0,.57.57h.76a.54.54,0,0,1,.49-.32h4.16a.53.53,0,0,1,.49.32h.76a.56.56,0,0,0,.57-.57V11A.56.56,0,0,0,19.06,10.44Z"/><path class="cls-2" d="M21.78,11.63a.52.52,0,0,1-.42-.22l-3.2-4.85a.49.49,0,0,1,.14-.69A.5.5,0,0,1,19,6l3.21,4.85a.51.51,0,0,1-.14.69A.5.5,0,0,1,21.78,11.63Z"/><path class="cls-2" d="M17.65,25.25h-1.4v-8.6s0,0,0,0h-1v8.64H13.82a.5.5,0,0,0-.5.5.5.5,0,0,0,.5.5h3.83a.51.51,0,0,0,.5-.5A.5.5,0,0,0,17.65,25.25Z"/></g></g></svg>