<svg xmlns="http://www.w3.org/2000/svg" viewBox="0 0 32 32"><defs><style>.cls-1{fill:#e84040;}.cls-2{fill:#fff;}.cls-3{fill:#fefbfb;}</style></defs><g id="Ebene_2" data-name="Ebene 2"><g id="Ebene_1-2" data-name="Ebene 1"><circle class="cls-1" cx="16" cy="16" r="16"/><path class="cls-2" d="M16,19.71l.09,0a.24.24,0,0,1,.14,0,1.69,1.69,0,0,0,.85.23,2,2,0,0,0,1.63-1.06c.51-.76,1.05-1.76,1.63-2.82a29.65,29.65,0,0,1,2.88-4.64.24.24,0,0,1,.2-.09.27.27,0,0,1,.12,0c.06,0,1.52.94,1.52,3.73a2.73,2.73,0,0,1-.43,1.76c-.35.58-.84,1.37-.84,6.5a.29.29,0,0,1-.28.32H22.8a.29.29,0,0,1-.28-.32V19.84a3,3,0,0,0-.31-1.43.23.23,0,0,0-.19-.1c-.31,0-1,1.6-1.43,2.55-.77,1.78-1.28,2.87-1.9,2.87A25.23,25.23,0,0,1,12.4,23a.33.33,0,0,1-.19-.21C12.1,22.38,12.26,21.34,16,19.71Z"/><path class="cls-3" d="M8.43,14.76C7.1,12.6,8.34,10,8.39,9.9a.31.31,0,0,1,.18-.16.31.31,0,0,1,.23,0,9.11,9.11,0,0,0,3.14.8,3.55,3.55,0,0,0,3-1.44,2,2,0,0,1,.19-.2c.23-.22.62-.12,1.74.55L17,9.39a.5.5,0,0,1,.77.62l.28.18.09-.1a.5.5,0,1,1,.75.65l.61.37a18.35,18.35,0,0,0,2.22.78,29.48,29.48,0,0,0-2.21,3.73l-.15.27-.74,0H18.5a.78.78,0,0,1-.53-.19h-.16A41.26,41.26,0,0,1,13.33,15l-.1.7a.3.3,0,0,1-.3.25h0c-4.06,0-4.32-.36-4.41-.47a.4.4,0,0,1-.07-.3,1.68,1.68,0,0,0,0-.4Z"/></g></g></svg>