<svg xmlns="http://www.w3.org/2000/svg" viewBox="0 0 32 32"><defs><style>.cls-1{fill:#e84040;}.cls-2{fill:#fefbfb;}</style></defs><g id="Ebene_2" data-name="Ebene 2"><g id="Ebene_1-2" data-name="Ebene 1"><circle class="cls-1" cx="16" cy="16" r="16"/><path class="cls-2" d="M10.44,18C6.55,17.39,6,16.9,5.93,16.79A2.63,2.63,0,0,1,8,15.14L9.47,15A5.76,5.76,0,0,1,10.44,18Z"/><path class="cls-2" d="M20.75,16.11a1,1,0,0,1-.69-.37,8.16,8.16,0,0,1,1.11.06A.8.8,0,0,1,20.75,16.11Z"/><path class="cls-2" d="M10.58,19l.23,0H11c1.63,0,10.14-.64,14-.94v1.33a.3.3,0,0,1-.28.31l-13.64.75c-.16,0-3.94-.26-5.09-1.67a1.43,1.43,0,0,1-.35-1A16.56,16.56,0,0,0,10.58,19Z"/><path class="cls-2" d="M25.81,13.39a.49.49,0,0,0,0-.7,1.27,1.27,0,0,0-.93-.41,2.18,2.18,0,0,0-1.41.83s0,.05,0,.08a20,20,0,0,1-2.53.21h0a7.37,7.37,0,0,1-3.51-1.48.32.32,0,0,0-.31,0l-.77.38L16.14,12a.5.5,0,0,0-.7-.1.51.51,0,0,0-.11.7l.06.07-.3.14L15,12.65a.5.5,0,1,0-.8.59l0,0-.29.14-.12-.17a.51.51,0,0,0-.7-.1.5.5,0,0,0-.11.7h0l-.41.19-.08-.11a.51.51,0,0,0-.7-.1.5.5,0,0,0-.13.64,7.63,7.63,0,0,1-.78.33l-.31,0A6.15,6.15,0,0,1,11.43,18c1.84-.07,8.39-.54,13.52-.94l-.68-3.34v0c.15-.18.46-.45.67-.45,0,0,.07,0,.16.08A.48.48,0,0,0,25.81,13.39ZM23.56,15.8a.38.38,0,0,1-.44.3c-.36-.07-.75-.14-1.12-.19a1.78,1.78,0,0,1-1.1.93.82.82,0,0,1-.22,0A1.87,1.87,0,0,1,19.29,16a.56.56,0,0,1-.08-.66c.09-.15.31-.5,2.36-.25a3.38,3.38,0,0,0,.13-.37.38.38,0,0,1,.73.2s-.05.14-.1.28l.93.17A.37.37,0,0,1,23.56,15.8Z"/></g></g></svg>