<svg xmlns="http://www.w3.org/2000/svg" viewBox="0 0 32 32"><defs><style>.cls-1{fill:#e84040;}.cls-2{fill:#fefbfb;}</style></defs><g id="Ebene_2" data-name="Ebene 2"><g id="Ebene_1-2" data-name="Ebene 1"><circle class="cls-1" cx="16" cy="16" r="16"/><path class="cls-2" d="M21.28,17.83a14.64,14.64,0,0,1,2.14-2.23c0,.09-.07.2-.12.29s0,.1,0,.14a32.23,32.23,0,0,0-.83,5.23c0,.46,0,.93,0,1.43a.3.3,0,0,1-.29.3.29.29,0,0,1-.31-.26,8.86,8.86,0,0,1,0-1.47A9.35,9.35,0,0,0,21.28,17.83Z"/><path class="cls-2" d="M8.62,22c0,.37.31.89,1.52,1.22a8.72,8.72,0,0,0,2.29.27l.81,0h.07a12,12,0,0,0,2.18-.23l.3-.07a2.88,2.88,0,0,0,2.4-1.59,17.08,17.08,0,0,1,1.61-3.23,14.45,14.45,0,0,1,3.76-4.17c-.14-1.78-.49-5.49-1.16-6A.49.49,0,0,0,22,8.08c-.34.07-1.9.57-3.57,1.12-.31.09-.61.2-.91.3l-3.69,1.23a2.49,2.49,0,0,0-1.56-.35,1.26,1.26,0,0,0-.84.67.84.84,0,0,0,.21,1,3.12,3.12,0,0,0,1.75.72,3.7,3.7,0,0,1-1.29.17.5.5,0,0,0-.05,1h.2a4.83,4.83,0,0,0,1.17-.15v0c0,.18,0,.34,0,.51h-.29a.49.49,0,0,0-.49.51.5.5,0,0,0,.5.49h.28v.57h-.29a.49.49,0,0,0-.49.51.5.5,0,0,0,.5.49h.26c0,.11,0,.21,0,.31s0,.18,0,.26h-.29a.5.5,0,0,0,0,1h.15c0,.24-.08.48-.14.72a1.22,1.22,0,0,1-.81.84h0C10.32,20.26,8.55,21,8.62,22Zm5-10.25a2.59,2.59,0,0,1-1.16-.37l.06,0h.09A2.24,2.24,0,0,1,13.62,11.75Z"/></g></g></svg>