<svg xmlns="http://www.w3.org/2000/svg" viewBox="0 0 32 32"><defs><style>.cls-1{fill:#e84040;}.cls-2{fill:#fefbfb;}</style></defs><g id="Ebene_2" data-name="Ebene 2"><g id="Ebene_1-2" data-name="Ebene 1"><circle class="cls-1" cx="16" cy="16" r="16"/><path class="cls-2" d="M18.08,21.33c.32-.5.65-1,1-1.66.09-.16.2-.3.29-.46a5.25,5.25,0,0,1,2.11-3.28A8.58,8.58,0,0,1,25,14.14a7.33,7.33,0,0,0-1.48-4.86.6.6,0,0,0-.37-.22c-.3,0-.44,0-.85.45a7.06,7.06,0,0,1-2.06,1.37,5,5,0,0,1-3.27-.8,2.27,2.27,0,0,0-.54-.27c-.54-.15-.75.24-1.51,2.27l-.15,0a.5.5,0,0,0-.56.42.49.49,0,0,0,.37.55c0,.19-.1.37-.14.55h-.1a.51.51,0,0,0-.56.42.5.5,0,0,0,.43.57h.05c0,.18-.07.35-.1.52h0a.51.51,0,0,0-.56.43.5.5,0,0,0,.33.53,5,5,0,0,1-.43.91c-.23.11-2.72,1.44-3.09,1.67-1.42,1-2.15,1.85-1.92,3.27C11.93,22.33,16.79,22.48,18.08,21.33Z"/><path class="cls-2" d="M13.3,23.23a40.46,40.46,0,0,1-4.54-.29,1.75,1.75,0,0,0,1.37.95,37,37,0,0,0,3.76.24,7,7,0,0,0,1.87-.19A3,3,0,0,0,17,22.86,15.76,15.76,0,0,1,13.3,23.23Z"/><path class="cls-2" d="M24.85,15.18a8,8,0,0,0-2.71,1.52,5.13,5.13,0,0,0-1.66,2.16h0c.27.44.52.68,1,.49l2.74-1.89a1.25,1.25,0,0,0,.65-1.37A3.29,3.29,0,0,0,24.85,15.18Z"/></g></g></svg>