<svg xmlns="http://www.w3.org/2000/svg" viewBox="0 0 32 32"><defs><style>.cls-1{fill:#e84040;}.cls-2{fill:#fefbfb;}</style></defs><g id="Ebene_2" data-name="Ebene 2"><g id="Ebene_1-2" data-name="Ebene 1"><circle class="cls-1" cx="16" cy="16" r="16"/><path class="cls-2" d="M20.5,17.5c-1.94.39-5,.93-5.63.93C13.66,18.37,7,17.31,6,16.79a2.37,2.37,0,0,1,.33-1.17,2,2,0,0,1,1.4-1.07c1.34-.17,2.5-.34,3.37-.5a.49.49,0,0,0,.24.23c.15.06,3.73,1.52,5.95,1a.45.45,0,0,1,.42.08,1.66,1.66,0,0,1,.41,1.3.5.5,0,0,0,1,0,2.58,2.58,0,0,0-.79-2.09A1.43,1.43,0,0,0,17,14.28a9.22,9.22,0,0,1-4.43-.6.28.28,0,0,0,.11,0c.18-.09.57-.34,1-.64a.49.49,0,0,1,0-.67.5.5,0,0,1,.7,0l.12.12.21-.14a.5.5,0,0,1,.74-.66l.13.13.24-.14a.51.51,0,0,1,.1-.56.5.5,0,0,1,.71,0l.08.09c.49-.22.74-.22.9-.08a3.11,3.11,0,0,1,.22.24A4.26,4.26,0,0,0,21.46,13a10.49,10.49,0,0,0,3.67-.94.33.33,0,0,1,.24,0,.3.3,0,0,1,.17.16A6.82,6.82,0,0,1,26,16.77,36.1,36.1,0,0,1,20.5,17.5Z"/><path class="cls-2" d="M14.48,19.39a1,1,0,0,1-.29.44.88.88,0,0,1-.59.22h-.12c-.39,0-2.29-.34-4.06-.65-3.74-.66-3.74-.74-3.74-1.05,0-.11,0-.38,0-.62C7.64,18.54,13.08,19.23,14.48,19.39Z"/><path class="cls-2" d="M20.63,18.49a41.58,41.58,0,0,0,4.88-.59,3.53,3.53,0,0,0,0,1,.42.42,0,0,1-.07.31c-.26.33-2,.51-5.09.53h0A.29.29,0,0,1,20,19.5l-.13-.86Z"/></g></g></svg>