<svg xmlns="http://www.w3.org/2000/svg" viewBox="0 0 32 32"><defs><style>.cls-1{fill:#e84040;}.cls-2{fill:#fefbfb;}</style></defs><g id="Ebene_2" data-name="Ebene 2"><g id="Ebene_1-2" data-name="Ebene 1"><circle class="cls-1" cx="16" cy="16" r="16"/><path class="cls-2" d="M21.74,16.16a2.65,2.65,0,0,1-.26-.49,11.67,11.67,0,0,1-.59-5.59A19.46,19.46,0,0,0,21,6.93a.19.19,0,0,0-.08-.15.25.25,0,0,0-.17,0L19,7.26c.33,4,.41,4.59.41,4.59,0,.28-.09.52-.37.54h-.13a.5.5,0,0,1-.49-.46s-.08-.5-.4-4.39l-2.63.77a.19.19,0,0,0-.14.17,8.38,8.38,0,0,0,.65,2.22c.59,1.66,1.58,4.44,1.15,5a8.86,8.86,0,0,1-1.34,1.19,35.13,35.13,0,0,0-4.91,4.63,3.52,3.52,0,0,0-.75-.08c-1.21,0-2.12.48-2.12,1.12s.91,1.12,2.12,1.12a3.15,3.15,0,0,0,1.6-.38,11.08,11.08,0,0,0,1.16-.17,6.42,6.42,0,0,0,2.7-1.4A5,5,0,0,1,17,20.83a2.67,2.67,0,0,1,1.29,0c.24,0,.52.07.81.09a2.39,2.39,0,0,0,.66.09,2.66,2.66,0,0,0,1.22-.31,2,2,0,0,0,1.39-1.38A3.77,3.77,0,0,0,21.74,16.16Zm-1.07,2.07a1.65,1.65,0,0,1-1.22.45l-.31,0a.5.5,0,0,1-.45-.55.51.51,0,0,1,.55-.45.92.92,0,0,0,.73-.14.85.85,0,0,0,.19-.58.5.5,0,0,1,.45-.54.49.49,0,0,1,.54.45A1.8,1.8,0,0,1,20.67,18.23Z"/></g></g></svg>