<svg xmlns="http://www.w3.org/2000/svg" viewBox="0 0 32 32"><defs><style>.cls-1{fill:#e84040;}.cls-2{fill:#fefbfb;}</style></defs><g id="Ebene_2" data-name="Ebene 2"><g id="Ebene_1-2" data-name="Ebene 1"><circle class="cls-1" cx="16" cy="16" r="16"/><path class="cls-2" d="M23.65,17.19H21.84V7.88a.5.5,0,0,0-.5-.5.51.51,0,0,0-.5.5v1H11.57v-1a.51.51,0,0,0-.5-.5.5.5,0,0,0-.5.5v9.31H8.7a.5.5,0,0,0,0,1h4.35l.28.26a.47.47,0,0,0,.06.09l2,1.82-4.2,3.86a.5.5,0,0,0,.34.86.46.46,0,0,0,.33-.13l.33-.29a1,1,0,0,0,.13-.09l3.84-3.5L20.38,25a.5.5,0,1,0,.68-.73L16.89,20.4l2.43-2.21h4.33a.5.5,0,0,0,0-1Zm-5.91,1-1.62,1.49-1.63-1.49Zm3.1-4.69v3.69H11.57V13.5Z"/></g></g></svg>