<svg xmlns="http://www.w3.org/2000/svg" viewBox="0 0 32 32"><defs><style>.cls-1{fill:#e84040;}.cls-2{fill:#fff;}</style></defs><g id="Ebene_2" data-name="Ebene 2"><g id="Ebene_1-2" data-name="Ebene 1"><circle class="cls-1" cx="16" cy="16" r="16"/><path class="cls-2" d="M22.22,7.66a.28.28,0,0,0-.11-.23.28.28,0,0,0-.26,0l-9.64,2.69a.29.29,0,0,0-.22.28v8.89a3.39,3.39,0,0,0-2.2-.77c-1.66,0-3,1.05-3,2.35s1.34,2.35,3,2.35,3-1.06,3-2.35a0,0,0,0,0,0,0V13.55l8.65-2.41v6.53a3.4,3.4,0,0,0-2.21-.77c-1.65,0-3,1.05-3,2.35s1.35,2.35,3,2.35,3-1.06,3-2.35V7.66Z"/></g></g></svg>