<svg xmlns="http://www.w3.org/2000/svg" viewBox="0 0 32 32"><defs><style>.cls-1{fill:#e84040;}.cls-2{fill:#fefbfb;}</style></defs><g id="Ebene_2" data-name="Ebene 2"><g id="Ebene_1-2" data-name="Ebene 1"><circle class="cls-1" cx="16" cy="16" r="16"/><path class="cls-2" d="M24.87,11.19l-2.94-1V9.51a.51.51,0,0,0-.5-.5h0a.5.5,0,0,0-.5.5v.66l-3,1a.5.5,0,0,0,.32.94l2.63-.91V21.91H19.66a.5.5,0,0,0-.5.5.5.5,0,0,0,.5.5h3.52a.5.5,0,0,0,.5-.5.51.51,0,0,0-.5-.5H21.91V11.2l2.62.93a.45.45,0,0,0,.16,0,.5.5,0,0,0,.17-1Z"/><path class="cls-2" d="M18.13,22.42l-.84-.74A4.51,4.51,0,0,0,18.15,19,4.59,4.59,0,1,0,9.7,21.49l-1.06.93A.5.5,0,0,0,9,23.3a.46.46,0,0,0,.33-.13l1-.9a4.53,4.53,0,0,0,6.3.15l.85.75a.46.46,0,0,0,.33.13.5.5,0,0,0,.33-.88Zm-4.3.39A1.62,1.62,0,1,1,15.19,21,1.62,1.62,0,0,1,13.83,22.81Z"/></g></g></svg>