<svg xmlns="http://www.w3.org/2000/svg" viewBox="0 0 32 32"><defs><style>.cls-1{fill:#e84040;}.cls-2{fill:#fefbfb;}</style></defs><g id="Ebene_2" data-name="Ebene 2"><g id="Ebene_1-2" data-name="Ebene 1"><circle class="cls-1" cx="16" cy="16" r="16"/><path class="cls-2" d="M11.68,23.45a1.28,1.28,0,0,1,.34-.9,7.31,7.31,0,0,1-3.28-4.78l-.85-1.21H7.62a8.27,8.27,0,0,0,4.07,7S11.68,23.48,11.68,23.45Z"/><path class="cls-2" d="M11.42,9.72a1.23,1.23,0,0,1,.53.55,7.26,7.26,0,0,1,7.56-.21l.95-.06.23-.37a8.26,8.26,0,0,0-9.55,0A1.62,1.62,0,0,1,11.42,9.72Z"/><path class="cls-2" d="M23.81,16.76a1.29,1.29,0,0,1-.63-.17,7.28,7.28,0,0,1-3.56,6.06l-.25.52.34.58a8.31,8.31,0,0,0,4.47-7A1.19,1.19,0,0,1,23.81,16.76Z"/><path class="cls-2" d="M19.28,25l-1-1.81.9-1.88a.24.24,0,0,0,0-.27.25.25,0,0,0-.26-.09l-2,.42L15.31,20A.27.27,0,0,0,15,19.9a.28.28,0,0,0-.17.22l-.22,2.07-1.83,1a.27.27,0,0,0-.14.24.26.26,0,0,0,.15.23l1.9.85.38,2.05a.28.28,0,0,0,.18.2h.08a.25.25,0,0,0,.19-.09L17,25.13,19,25.4a.26.26,0,0,0,.25-.11A.24.24,0,0,0,19.28,25Z"/><path class="cls-2" d="M24.07,15.48l-.19-2.07,1.61-1.33a.25.25,0,0,0,.09-.26.26.26,0,0,0-.2-.19l-2-.47-.76-1.94a.27.27,0,0,0-.22-.16.27.27,0,0,0-.25.12L21.05,11,19,11.1a.24.24,0,0,0-.22.15.28.28,0,0,0,0,.28l1.37,1.57-.52,2a.27.27,0,0,0,.08.27l.06,0a.26.26,0,0,0,.21,0l1.92-.82,1.76,1.12a.26.26,0,0,0,.27,0A.29.29,0,0,0,24.07,15.48Z"/><path class="cls-2" d="M10.07,17.19l.62-2,2-.61a.28.28,0,0,0,.18-.21.23.23,0,0,0-.11-.25l-1.69-1.21,0-2.08A.27.27,0,0,0,11,10.6a.29.29,0,0,0-.27,0L9,11.87l-2-.68a.27.27,0,0,0-.27.06.26.26,0,0,0-.06.27l.66,2L6.11,15.16a.24.24,0,0,0,0,.27l0,.06a.21.21,0,0,0,.19.08l2.09,0L9.6,17.26a.29.29,0,0,0,.26.11A.29.29,0,0,0,10.07,17.19Z"/></g></g></svg>