<svg xmlns="http://www.w3.org/2000/svg" viewBox="0 0 32 32"><defs><style>.cls-1{fill:#e84040;}.cls-2{fill:#fefbfb;}</style></defs><g id="Ebene_2" data-name="Ebene 2"><g id="Ebene_1-2" data-name="Ebene 1"><circle class="cls-1" cx="16" cy="16" r="16"/><path class="cls-2" d="M13.82,21.22H12a.5.5,0,0,0-.5.5v1.35a.5.5,0,0,0,.5.5h.42a.49.49,0,0,0,1,0h.42a.5.5,0,0,0,.5-.5V21.72A.5.5,0,0,0,13.82,21.22Z"/><path class="cls-2" d="M25.72,16,24.5,14.85a.92.92,0,0,0-.3-.18l-.83-.35a1,1,0,0,0-1.49-.62l-1-.41a1,1,0,0,0-1.31.54l-.46,1.11a1,1,0,0,0,0,.76,1,1,0,0,0,.54.55l.64.26L17.44,22.4a1,1,0,1,0,1.8.88l2.93-6,.8.33a1.17,1.17,0,0,0,.37.08l1.68,0a1,1,0,0,0,.35-.06A1,1,0,0,0,25.72,16Z"/><path class="cls-2" d="M12.92,8.09a5.06,5.06,0,0,0-5.06,5.05c0,1.57,1,2.88,1.91,4a5.05,5.05,0,0,1,1.34,2.48.5.5,0,0,0,.5.5h2.61a.5.5,0,0,0,.5-.5,5.05,5.05,0,0,1,1.34-2.48C17,16,18,14.71,18,13.14A5.06,5.06,0,0,0,12.92,8.09Zm3.51,5.23v0L14.9,17a.49.49,0,0,1-.65.27.5.5,0,0,1-.28-.65l.8-1.94-.28,0A2.18,2.18,0,0,1,13,14.08a1.86,1.86,0,0,1-1.55.66,1.36,1.36,0,0,1-.29,0l.9,2.1a.5.5,0,0,1-.26.66.45.45,0,0,1-.2,0,.5.5,0,0,1-.46-.3l-1.59-3.7a1.15,1.15,0,0,1-.09-.22.49.49,0,0,1,.3-.62.5.5,0,0,1,.63.27l.08.18a1.14,1.14,0,0,0,1,.62.91.91,0,0,0,1-.73.5.5,0,0,1,.45-.37.47.47,0,0,1,.49.31,1.37,1.37,0,0,0,1.07.79,1.22,1.22,0,0,0,1-.77v0a.5.5,0,0,1,.93.37Z"/></g></g></svg>