<svg xmlns="http://www.w3.org/2000/svg" viewBox="0 0 32 32"><defs><style>.cls-1{fill:#e84040;}.cls-2{fill:#fff;}</style></defs><g id="Ebene_2" data-name="Ebene 2"><g id="Ebene_1-2" data-name="Ebene 1"><circle class="cls-1" cx="16" cy="16" r="16"/><path class="cls-2" d="M14.32,11.11a.5.5,0,0,0,.5.5h.5V24.29h2V11.61h.49a.5.5,0,0,0,0-1h-.19a1.94,1.94,0,0,0,.68-1.48,3.16,3.16,0,0,0-1-2.19,1,1,0,0,0-1.94,0,3.16,3.16,0,0,0-1,2.19A2,2,0,0,0,15,10.61h-.19A.5.5,0,0,0,14.32,11.11Zm2,9.23a.59.59,0,1,1,0-1.17.59.59,0,1,1,0,1.17Zm0-3.14a.59.59,0,1,1,0-1.17.59.59,0,1,1,0,1.17Zm0-3.14a.59.59,0,1,1,0-1.17.59.59,0,1,1,0,1.17Zm0-6.87a.78.78,0,1,1-.78.78A.78.78,0,0,1,16.32,7.19Z"/><path class="cls-2" d="M17.83,25.29h-3a.5.5,0,0,0,0,1h3a.5.5,0,0,0,.5-.5A.49.49,0,0,0,17.83,25.29Z"/></g></g></svg>