<svg xmlns="http://www.w3.org/2000/svg" viewBox="0 0 32 32"><defs><style>.cls-1{fill:#e84040;}.cls-2,.cls-3{fill:#fff;}.cls-3{fill-rule:evenodd;}</style></defs><g id="Ebene_2" data-name="Ebene 2"><g id="Ebene_1-2" data-name="Ebene 1"><circle class="cls-1" cx="16" cy="16" r="16"/><path class="cls-2" d="M22.62,8.24a.5.5,0,0,0-.71,0l-.44.44-.28-.28a.5.5,0,0,0-.71,0,.51.51,0,0,0,0,.71l.28.27-.53.53L20,9.63a.5.5,0,0,0-.7,0,.5.5,0,0,0,0,.71l.28.28-5.16,5.16a.5.5,0,0,0,.35.85.47.47,0,0,0,.35-.15l5.16-5.16.28.28a.5.5,0,0,0,.35.15.51.51,0,0,0,.36-.15.5.5,0,0,0,0-.7l-.28-.28.53-.53.28.28a.47.47,0,0,0,.35.15.49.49,0,0,0,.35-.15.5.5,0,0,0,0-.71l-.28-.28.45-.44A.5.5,0,0,0,22.62,8.24Z"/><path class="cls-3" d="M14.72,17.63a1.5,1.5,0,0,1-1.05-2.57l1-1c-.58-.28-1.23-.49-1.57-.25-.69.48-.65,1.59-1.45,2.07s-3.22.32-4.37,1.64c-.76.95-.5,2.91.84,4.41s3.48,2.86,4.69,2.19,1.4-3.29,2-4.12,1.87-.32,2.59-1.69C16.81,17.67,14.8,17.63,14.72,17.63Zm-3.49,4a.5.5,0,0,1-.35.15.51.51,0,0,1-.36-.15L9.26,20.33a.5.5,0,0,1,0-.71.51.51,0,0,1,.71,0l1.26,1.26A.5.5,0,0,1,11.23,21.59Zm1.57.74a.52.52,0,1,1,.52-.51A.51.51,0,0,1,12.8,22.33Z"/></g></g></svg>