<svg xmlns="http://www.w3.org/2000/svg" viewBox="0 0 32 32"><defs><style>.cls-1{fill:#e84040;}.cls-2{fill:#fff;}</style></defs><g id="Ebene_2" data-name="Ebene 2"><g id="Ebene_1-2" data-name="Ebene 1"><circle class="cls-1" cx="16" cy="16" r="16"/><path class="cls-2" d="M23.86,14.4v-1a.31.31,0,0,0-.3-.3,4.07,4.07,0,0,1-.16-.79c-.07-.78-1-.77-2-.75-1.66,0-2.95-.07-3.24-1.52-.65-3.19-4.34-3.49-4.37-3.49a.27.27,0,0,0-.28.14L9.71,13.14H9.4a.31.31,0,0,0-.3.3v1Z"/><path class="cls-2" d="M22.75,15.4s0,0,0,.06a.59.59,0,0,1-.6.59H10a.59.59,0,0,1-.6-.59v0s-1.29,0-1.29,0a.3.3,0,0,0-.3.29l0,1.2a.35.35,0,0,0,.08.22.36.36,0,0,0,.22.09H9.55l.12,6.37a.29.29,0,0,0,.3.29h0a.3.3,0,0,0,.3-.3l-.12-6.36H22.47v6.36a.3.3,0,0,0,.3.3.29.29,0,0,0,.3-.3V17.21h.51a.29.29,0,0,0,.21-.09.33.33,0,0,0,.09-.21V15.4Z"/></g></g></svg>