<svg xmlns="http://www.w3.org/2000/svg" viewBox="0 0 32 32"><defs><style>.cls-1{fill:#e84040;}.cls-2{fill:#fefbfb;}</style></defs><g id="Ebene_2" data-name="Ebene 2"><g id="Ebene_1-2" data-name="Ebene 1"><circle class="cls-1" cx="16" cy="16" r="16"/><path class="cls-2" d="M15.92,12.61a.51.51,0,0,1-.44-.25.5.5,0,0,1,.19-.68l6.61-3.82a.5.5,0,1,1,.5.86l-6.61,3.83A.57.57,0,0,1,15.92,12.61Z"/><path class="cls-2" d="M15.22,15.14A.5.5,0,0,1,14.9,15L9.05,10.12A.51.51,0,0,1,9,9.41a.49.49,0,0,1,.7-.06l5.85,4.91a.51.51,0,0,1,.07.71A.52.52,0,0,1,15.22,15.14Z"/><path class="cls-2" d="M22.19,23.44V17.91s0,0,0,0a.49.49,0,0,0,.3-.45.5.5,0,0,0-.5-.5h-12a.5.5,0,0,0-.5.5.48.48,0,0,0,.3.45s0,0,0,0v5.53a.5.5,0,0,0,.21.95H22a.5.5,0,0,0,.21-.95Zm-6.54-.05L14.3,17.93h3.47l-1.45,5.46Zm-3.39,0h-.67l-1.37-5.46h3.43Zm7.59,0-1.22-5.46h3.16l-1.27,5.46Z"/></g></g></svg>