<svg xmlns="http://www.w3.org/2000/svg" viewBox="0 0 32 32"><defs><style>.cls-1{fill:#e84040;}.cls-2{fill:#fff;}</style></defs><g id="Ebene_2" data-name="Ebene 2"><g id="Ebene_1-2" data-name="Ebene 1"><circle class="cls-1" cx="16" cy="16" r="16"/><path class="cls-2" d="M22.8,9H21.23v9.82A.22.22,0,0,1,21,19h-.59v4.51a.22.22,0,0,0,.22.23H22.8a.23.23,0,0,0,.23-.23V9.21A.22.22,0,0,0,22.8,9Z"/><path class="cls-2" d="M15.26,19a.22.22,0,0,1-.23-.22V9h-1v9.82a.22.22,0,0,1-.23.22h-.59v4.51a.23.23,0,0,0,.23.23h2.16a.23.23,0,0,0,.23-.23V19Z"/><path class="cls-2" d="M11.66,19a.22.22,0,0,1-.22-.22V9H9.87a.22.22,0,0,0-.23.22V23.54a.23.23,0,0,0,.23.23H12a.22.22,0,0,0,.22-.23V19Z"/><path class="cls-2" d="M18.85,19a.22.22,0,0,1-.23-.22V9h-1v9.82a.22.22,0,0,1-.22.22h-.6v4.51a.23.23,0,0,0,.23.23h2.16a.23.23,0,0,0,.23-.23V19Z"/></g></g></svg>