<svg xmlns="http://www.w3.org/2000/svg" viewBox="0 0 32 32"><defs><style>.cls-1{fill:#e84040;}.cls-2{fill:#fefbfb;}</style></defs><g id="Ebene_2" data-name="Ebene 2"><g id="Ebene_1-2" data-name="Ebene 1"><circle class="cls-1" cx="16" cy="16" r="16"/><path class="cls-2" d="M24.51,16.52a13.31,13.31,0,0,0-1.12-5.41,1.75,1.75,0,1,0-2.91-1.32,1.76,1.76,0,0,0,1.14,1.64H19.14v-.38a.5.5,0,0,0-1,0v.38H16.52V10.6a.5.5,0,0,0-.5-.5.5.5,0,0,0-.5.5v.83H13.75v-1a.51.51,0,0,0-.5-.5.5.5,0,0,0-.5.5v1H10.53A1.75,1.75,0,1,0,8.15,9.79a1.73,1.73,0,0,0,.42,1.13,25.22,25.22,0,0,0-.69,5.48,8.78,8.78,0,0,0,2.18,6.36A8.08,8.08,0,0,0,16.2,25a8.18,8.18,0,0,0,6.14-2.22A8.62,8.62,0,0,0,24.51,16.52ZM9.56,16.44a20.48,20.48,0,0,1,.66-4.06h2.53v9.34a6.81,6.81,0,0,1-1.45-.89A5.55,5.55,0,0,1,9.56,16.44Zm4.19,5.67V12.38h1.77v10A7,7,0,0,1,13.75,22.11Zm2.77.29v-10h1.62v9.84A6.76,6.76,0,0,1,16.52,22.4ZM21,20.73a7.1,7.1,0,0,1-1.86,1.15v-9.5H22a12.26,12.26,0,0,1,.73,3.81A6,6,0,0,1,21,20.73Z"/></g></g></svg>