<svg xmlns="http://www.w3.org/2000/svg" viewBox="0 0 32 32"><defs><style>.cls-1{fill:#e84040;}.cls-2{fill:#fefbfb;}</style></defs><g id="Ebene_2" data-name="Ebene 2"><g id="Ebene_1-2" data-name="Ebene 1"><circle class="cls-1" cx="16" cy="16" r="16"/><path class="cls-2" d="M13.81,14.33l-.25,0c0-.8-.05-1.57-.07-2.27a4.31,4.31,0,0,0,2.19-3.45,2.92,2.92,0,0,0-.51-2.16A1.55,1.55,0,0,0,14,6a1.4,1.4,0,0,0-1,.44,3.67,3.67,0,0,0-.62,2.46c0,.48,0,1.44.07,2.64l-.13.09a10.05,10.05,0,0,0-1.21.86c-1.67,1.41-2.54,2.92-2.51,4.38a3.9,3.9,0,0,0,1.3,3,4.55,4.55,0,0,0,2.81,1c0,1.49.07,2.51.07,2.51s0,1.2-.69,1.22c-.95,0-1-.35-1-.87a.5.5,0,1,0-1,0,1.74,1.74,0,0,0,2,1.85h.09a1.5,1.5,0,0,0,1.08-.47,2.66,2.66,0,0,0,.58-1.78s0-1-.07-2.53a3.46,3.46,0,0,0,2.92-3.33C16.6,15,15.09,14.38,13.81,14.33ZM10.58,19.1a2.94,2.94,0,0,1-.95-2.24c0-1.45,1.15-2.75,2.16-3.6a7.11,7.11,0,0,1,.72-.54c0,.59,0,1.22.05,1.86a2.67,2.67,0,0,0-1.65,2.22.5.5,0,0,0,1,.07,1.74,1.74,0,0,1,.68-1.19c0,1.46.09,2.92.12,4.18A3.55,3.55,0,0,1,10.58,19.1ZM13.4,8.88a2.89,2.89,0,0,1,.36-1.75A.38.38,0,0,1,14.05,7h0a.45.45,0,0,1,.38.14,2,2,0,0,1,.25,1.4,3.08,3.08,0,0,1-1.23,2.31C13.43,10,13.41,9.27,13.4,8.88ZM15.08,19a2.44,2.44,0,0,1-1.37.81c0-1.34-.08-2.92-.13-4.46h.22c1.27.05,1.83.7,1.86,2.18A2.4,2.4,0,0,1,15.08,19Z"/><path class="cls-2" d="M21.4,21.38a1.85,1.85,0,1,0-2.6,0A2.07,2.07,0,0,0,18,23a2.11,2.11,0,1,0,4.22,0A2.07,2.07,0,0,0,21.4,21.38Zm-2.15-1.32a.85.85,0,1,1,.85.85A.85.85,0,0,1,19.25,20.06Zm.85,4.07A1.11,1.11,0,1,1,21.21,23,1.11,1.11,0,0,1,20.1,24.13Z"/></g></g></svg>