<svg xmlns="http://www.w3.org/2000/svg" viewBox="0 0 32 32"><defs><style>.cls-1{fill:#e84040;}.cls-2{fill:#fefbfb;}</style></defs><g id="Ebene_2" data-name="Ebene 2"><g id="Ebene_1-2" data-name="Ebene 1"><circle class="cls-1" cx="16" cy="16" r="16"/><path class="cls-2" d="M13.81,14.41h-.25c0-.79-.05-1.56-.07-2.26A4.34,4.34,0,0,0,15.68,8.7a2.92,2.92,0,0,0-.51-2.16A1.55,1.55,0,0,0,14,6.08a1.4,1.4,0,0,0-1,.44A3.69,3.69,0,0,0,12.41,9c0,.48,0,1.44.07,2.64l-.13.08a9.1,9.1,0,0,0-1.21.87C9.47,14,8.6,15.5,8.63,17a3.92,3.92,0,0,0,1.3,3,4.49,4.49,0,0,0,2.81,1c0,1.5.07,2.51.07,2.51s0,1.21-.69,1.23c-.95,0-1-.35-1-.88a.5.5,0,0,0-1,0,1.74,1.74,0,0,0,2,1.85h.09a1.58,1.58,0,0,0,1.08-.47,2.69,2.69,0,0,0,.58-1.79s0-1-.07-2.52a3.47,3.47,0,0,0,2.1-1.18,3.41,3.41,0,0,0,.82-2.15C16.6,15,15.09,14.46,13.81,14.41Zm-3.23,4.77a3,3,0,0,1-.95-2.25c0-1.44,1.15-2.75,2.16-3.6a7.07,7.07,0,0,1,.72-.53c0,.59,0,1.21.05,1.85a2.7,2.7,0,0,0-1.65,2.22.5.5,0,0,0,1,.08,1.7,1.7,0,0,1,.68-1.19c0,1.45.09,2.92.12,4.17A3.55,3.55,0,0,1,10.58,19.18ZM13.4,9a2.86,2.86,0,0,1,.36-1.74.39.39,0,0,1,.29-.13h0a.49.49,0,0,1,.38.14,2.06,2.06,0,0,1,.25,1.41,3.1,3.1,0,0,1-1.23,2.31C13.43,10,13.41,9.34,13.4,9Zm1.68,10.11a2.51,2.51,0,0,1-1.37.82c0-1.34-.08-2.92-.13-4.46h.22c1.27.05,1.83.7,1.86,2.17A2.36,2.36,0,0,1,15.08,19.06Z"/><path class="cls-2" d="M22.23,11.58a.5.5,0,0,0-.5-.5.5.5,0,0,0-.5.5v5.71a2.09,2.09,0,0,0-.72-.13,1.63,1.63,0,0,0-1.78,1.4A1.63,1.63,0,0,0,20.51,20a1.64,1.64,0,0,0,1.78-1.37h0Z"/></g></g></svg>