<svg xmlns="http://www.w3.org/2000/svg" viewBox="0 0 32 32"><defs><style>.cls-1{fill:#e84040;}.cls-2{fill:#fefbfb;}</style></defs><g id="Ebene_2" data-name="Ebene 2"><g id="Ebene_1-2" data-name="Ebene 1"><circle class="cls-1" cx="16" cy="16" r="16"/><path class="cls-2" d="M13.81,14.39l-.25,0c0-.8-.05-1.56-.07-2.27a4.31,4.31,0,0,0,2.19-3.45,2.92,2.92,0,0,0-.51-2.16A1.55,1.55,0,0,0,14,6.07a1.4,1.4,0,0,0-1,.44A3.68,3.68,0,0,0,12.41,9c0,.48,0,1.44.07,2.65a.57.57,0,0,0-.13.08,10.05,10.05,0,0,0-1.21.86C9.47,14,8.6,15.48,8.63,16.94a3.9,3.9,0,0,0,1.3,3,4.55,4.55,0,0,0,2.81,1c0,1.5.07,2.51.07,2.51s0,1.2-.69,1.22c-.95,0-1-.35-1-.87a.5.5,0,1,0-1,0,1.73,1.73,0,0,0,2,1.84h.09a1.5,1.5,0,0,0,1.08-.47,2.66,2.66,0,0,0,.58-1.78s0-1-.07-2.52a3.43,3.43,0,0,0,2.1-1.19,3.37,3.37,0,0,0,.82-2.15C16.6,15,15.09,14.44,13.81,14.39Zm-3.23,4.78a3,3,0,0,1-.95-2.25c0-1.45,1.15-2.75,2.16-3.6a5.83,5.83,0,0,1,.72-.53c0,.59,0,1.21.05,1.85a2.68,2.68,0,0,0-1.65,2.22.5.5,0,0,0,1,.07,1.71,1.71,0,0,1,.68-1.18c0,1.45.09,2.91.12,4.17A3.61,3.61,0,0,1,10.58,19.17ZM13.4,8.94a2.84,2.84,0,0,1,.36-1.74.36.36,0,0,1,.29-.13h0a.45.45,0,0,1,.38.14,2.06,2.06,0,0,1,.25,1.41,3.06,3.06,0,0,1-1.23,2.3C13.43,10,13.41,9.33,13.4,8.94Zm1.68,10.11a2.44,2.44,0,0,1-1.37.81c0-1.34-.08-2.91-.13-4.45l.22,0c1.27,0,1.83.7,1.86,2.18A2.4,2.4,0,0,1,15.08,19.05Z"/><path class="cls-2" d="M20.51,7.06a1.64,1.64,0,0,0-1.78,1.37h0l.05,7a.51.51,0,0,0,.5.5.5.5,0,0,0,.5-.5V9.74a2.19,2.19,0,0,0,.73.12,1.62,1.62,0,0,0,1.78-1.4A1.63,1.63,0,0,0,20.51,7.06Z"/></g></g></svg>