<svg xmlns="http://www.w3.org/2000/svg" viewBox="0 0 32 32"><defs><style>.cls-1{fill:#e84040;}.cls-2{fill:#fefbfb;}</style></defs><g id="Ebene_2" data-name="Ebene 2"><g id="Ebene_1-2" data-name="Ebene 1"><circle class="cls-1" cx="16" cy="16" r="16"/><path class="cls-2" d="M20.82,8.07a3.51,3.51,0,0,0-1.73.44l4.81,4.83a3.63,3.63,0,0,0,.45-1.71A3.55,3.55,0,0,0,20.82,8.07Z"/><path class="cls-2" d="M17.28,11.61c-.17,1,2.62,3.72,3.54,3.54a3.45,3.45,0,0,0,2.47-1l-5-5A3.54,3.54,0,0,0,17.28,11.61Z"/><path class="cls-2" d="M19.5,15.75a8.38,8.38,0,0,1-2.63-2.67.34.34,0,0,0-.28-.18.38.38,0,0,0-.32.12L8.1,22a.37.37,0,0,0,0,.51l1.62,1.65a.37.37,0,0,0,.27.12.36.36,0,0,0,.24-.09l9.3-7.8a.43.43,0,0,0,.14-.32A.42.42,0,0,0,19.5,15.75Zm-2.38.75L13.9,19.38a.58.58,0,0,1-.84-.06.64.64,0,0,1,.06-.87l3.22-2.88a.59.59,0,0,1,.84.06A.65.65,0,0,1,17.12,16.5Z"/></g></g></svg>