<svg xmlns="http://www.w3.org/2000/svg" viewBox="0 0 32 32"><defs><style>.cls-1{fill:#e84040;}.cls-2{fill:#fff;}</style></defs><g id="Ebene_2" data-name="Ebene 2"><g id="Ebene_1-2" data-name="Ebene 1"><circle class="cls-1" cx="16" cy="16" r="16"/><path class="cls-2" d="M13.56,6.43A5.25,5.25,0,0,0,9.18,8.76a4.64,4.64,0,0,0-.64,3.52,4.42,4.42,0,0,0,1.24,2.14,3.72,3.72,0,0,0,2.39.87,1.73,1.73,0,1,0-1.67-2.1l-.23-.09a1.39,1.39,0,0,1-.75-1A3.73,3.73,0,0,1,10,9.35a4.29,4.29,0,0,1,3.56-1.92A4.63,4.63,0,0,1,18,12.27c0,3.53-2.19,6.75-7.8,11.46a.51.51,0,0,0-.06.71.49.49,0,0,0,.38.18.47.47,0,0,0,.32-.12C16.71,19.57,19,16.14,19,12.26a5.62,5.62,0,0,0-5.44-5.83Z"/><path class="cls-2" d="M22.52,13.16a1.24,1.24,0,1,0,1.24,1.24A1.23,1.23,0,0,0,22.52,13.16Z"/><path class="cls-2" d="M22.52,11.91a1.24,1.24,0,1,0-1.24-1.24A1.23,1.23,0,0,0,22.52,11.91Z"/></g></g></svg>