<svg xmlns="http://www.w3.org/2000/svg" viewBox="0 0 32 32"><defs><style>.cls-1{fill:#e84040;}.cls-2{fill:#fff;}.cls-3{fill:#fefbfb;}</style></defs><g id="Ebene_2" data-name="Ebene 2"><g id="Ebene_1-2" data-name="Ebene 1"><circle class="cls-1" cx="16" cy="16" r="16"/><path class="cls-2" d="M11.14,21a.22.22,0,0,1-.23-.22V15.4H9.2a.22.22,0,0,0-.22.23v7.82a.23.23,0,0,0,.22.23h2.36a.23.23,0,0,0,.23-.23V21Z"/><path class="cls-2" d="M15,21a.22.22,0,0,1-.23-.22V15.4h-1v5.4a.23.23,0,0,1-.23.22h-.65v2.43a.23.23,0,0,0,.22.23h2.36a.23.23,0,0,0,.23-.23V21Z"/><path class="cls-2" d="M23.17,15.4H21.46v5.4a.22.22,0,0,1-.23.22h-.65v2.43a.23.23,0,0,0,.23.23h2.36a.23.23,0,0,0,.22-.23V15.63A.22.22,0,0,0,23.17,15.4Z"/><path class="cls-2" d="M18.87,21a.22.22,0,0,1-.22-.22V15.4H17.59v5.4a.22.22,0,0,1-.22.22h-.66v2.43a.24.24,0,0,0,.23.23H19.3a.24.24,0,0,0,.23-.23V21Z"/><path class="cls-3" d="M12.3,9.64V8.81H9.24a.5.5,0,0,0,0,1h3.08A1,1,0,0,1,12.3,9.64Z"/><path class="cls-3" d="M22.74,8.81H15.3v.83a1,1,0,0,1,0,.17h7.46a.5.5,0,0,0,0-1Z"/><path class="cls-3" d="M13.8,11.21a.5.5,0,0,1-.5-.5V7.82a.5.5,0,0,1,1,0v2.89A.5.5,0,0,1,13.8,11.21Z"/><circle class="cls-3" cx="11.41" cy="13.06" r="1.11"/><circle class="cls-3" cx="16.32" cy="13.06" r="1.11"/><circle class="cls-3" cx="20.94" cy="13.06" r="1.11"/></g></g></svg>