<svg xmlns="http://www.w3.org/2000/svg" viewBox="0 0 32 32"><defs><style>.cls-1{fill:#e84040;}.cls-2{fill:#fefbfb;}</style></defs><g id="Ebene_2" data-name="Ebene 2"><g id="Ebene_1-2" data-name="Ebene 1"><circle class="cls-1" cx="16" cy="16" r="16"/><path class="cls-2" d="M26.06,15.28H24.77A3.49,3.49,0,0,0,18,14.79a3.14,3.14,0,0,0-1.86-.7,3.83,3.83,0,0,0-2.07.76,3.49,3.49,0,0,0-6.83.43H5.86v1H7.2a3.49,3.49,0,0,0,7-.25,3.37,3.37,0,0,1,2-.94,2.6,2.6,0,0,1,1.72.91,3.49,3.49,0,0,0,7,.28h1.29Zm-15.4,3a2.52,2.52,0,1,1,2.52-2.52A2.52,2.52,0,0,1,10.66,18.3Zm10.65,0a2.52,2.52,0,1,1,2.51-2.52A2.51,2.51,0,0,1,21.31,18.3Z"/></g></g></svg>