<svg xmlns="http://www.w3.org/2000/svg" viewBox="0 0 32 32"><defs><style>.cls-1{fill:#e84040;}.cls-2{fill:#fefbfb;}</style></defs><g id="Ebene_2" data-name="Ebene 2"><g id="Ebene_1-2" data-name="Ebene 1"><circle class="cls-1" cx="16" cy="16" r="16"/><path class="cls-2" d="M24.75,17.69l-5.26-4.16a.5.5,0,0,0-.62.79l.36.29c.25.56-.18,1-.39,2.27-.25,1.52-.28,5.46-1.44,5.46-.42,0-.56-3.76-.6-6.57h.07a.5.5,0,0,0,.5-.5.5.5,0,0,0-.5-.5h-.08c0-.17,0-.33,0-.48h0a.5.5,0,0,0,.5-.5.51.51,0,0,0-.5-.5h0v-.47h0a.5.5,0,0,0,.5-.5.51.51,0,0,0-.5-.5h0c0-.16,0-.31,0-.47a.5.5,0,0,0,0-1c0-.49,0-1,0-1.48,0-2-.18-3.07-1.35-3.45s-2.42,2.25-3.53,3v1c1.38-.37,2.12-2.12,2.78-1.95S13.76,16.35,13.06,21s4.07,6.24,6.85,4.64,2.11-5,2.76-6.57c.3-.69,1.19-.61,1.51-.56l.1,0h0a.44.44,0,0,0,.15,0,.5.5,0,0,0,.31-.89Z"/><path class="cls-2" d="M11.05,8.58A5,5,0,0,1,9.9,8.22c-.67-.27-.74.09-.3.52a3.44,3.44,0,0,0,1.45.67Z"/></g></g></svg>