<svg id="Layer_1" data-name="Layer 1" xmlns="http://www.w3.org/2000/svg" xmlns:xlink="http://www.w3.org/1999/xlink" viewBox="0 0 180 180"><defs><style>.cls-1{fill:none;}.cls-2{fill:url(#linear-gradient);}.cls-3{fill:#fff;}.cls-4{clip-path:url(#clip-path);}</style><linearGradient id="linear-gradient" x1="-1.27" y1="177.65" x2="182.29" y2="1.36" gradientUnits="userSpaceOnUse"><stop offset="0" stop-color="#193154"/><stop offset="1" stop-color="#e51947"/></linearGradient><clipPath id="clip-path"><rect class="cls-1" x="48.18" y="121.31" width="75.16" height="47.79"/></clipPath></defs><rect class="cls-2" width="180" height="180"/><path class="cls-3" d="M92.82,74a55.42,55.42,0,0,0-38.22-8,35,35,0,0,0-1.27,9.32c0,1,.05,2.05.14,3.06a43.65,43.65,0,0,1,50.54,28,35.07,35.07,0,0,0,9.93-7.56A55.27,55.27,0,0,0,92.82,74Z"/><path class="cls-3" d="M98.87,64.47a66.07,66.07,0,0,1,22,23,34.69,34.69,0,0,0,2.23-12.27V26.35H88.19v14A34.76,34.76,0,0,0,60.47,54.11,66.28,66.28,0,0,1,98.87,64.47Z"/><path class="cls-3" d="M80.3,93.62a32.69,32.69,0,0,0-24.07-4.46,34.88,34.88,0,0,0,10.46,13.52,9.06,9.06,0,0,1,7.39,1.58h0a9,9,0,0,1,3.06,4,34.62,34.62,0,0,0,16.2,1.41A32.64,32.64,0,0,0,80.3,93.62Z"/><g id="digitalstageTypeWhite"><g class="cls-4"><g class="cls-4"><path class="cls-3" d="M54.23,126.57a5.43,5.43,0,0,1,4.32,2.05v-6.26h3.38V140H58.55v-2a5,5,0,0,1-4.34,2.16c-3.36,0-6-2.74-6-6.86s2.67-6.77,6-6.77m.84,2.94a3.52,3.52,0,0,0-3.48,3.83,3.61,3.61,0,0,0,3.48,3.93,3.9,3.9,0,0,0,0-7.76"/><path class="cls-3" d="M64.84,123.26a2.05,2.05,0,1,1,2,2,2,2,0,0,1-2-2m.36,3.53h3.33V140H65.2Z"/><path class="cls-3" d="M77,126.57a5.16,5.16,0,0,1,4.36,2.1v-1.88h3.36v13.3c0,3.57-2.19,6.41-6.53,6.41-3.71,0-6.31-1.86-6.64-4.89h3.31a3.1,3.1,0,0,0,3.24,2c1.83,0,3.26-1.05,3.26-3.5V138A5.19,5.19,0,0,1,77,140.2c-3.36,0-6-2.74-6-6.86s2.67-6.77,6-6.77m.86,2.94a3.52,3.52,0,0,0-3.48,3.83,3.61,3.61,0,0,0,3.48,3.93,3.9,3.9,0,0,0,0-7.76"/><path class="cls-3" d="M87.62,123.26a2.05,2.05,0,1,1,2,2,2,2,0,0,1-2-2m.36,3.53h3.34V140H88Z"/><path class="cls-3" d="M95.13,129.53H93.56v-2.74h1.57v-3.27h3.36v3.27h3v2.74h-3v6.38c0,.89.35,1.27,1.4,1.27h1.55V140H99.35c-2.53,0-4.22-1.07-4.22-4.1Z"/><path class="cls-3" d="M109,126.57a5.2,5.2,0,0,1,4.36,2.1v-1.88h3.36V140h-3.36v-1.93A5.21,5.21,0,0,1,109,140.2c-3.34,0-6-2.74-6-6.86s2.67-6.77,6-6.77m.86,2.94a3.52,3.52,0,0,0-3.48,3.83,3.61,3.61,0,0,0,3.48,3.93,3.9,3.9,0,0,0,0-7.76"/><rect class="cls-3" x="120.01" y="122.36" width="3.34" height="17.64"/><path class="cls-3" d="M54.09,162.81c-3.31,0-5.62-1.93-5.76-4.39h3.35a2.21,2.21,0,0,0,2.39,1.77c1.31,0,2-.6,2-1.36,0-2.36-7.46-.86-7.46-5.7,0-2.19,2-4,5.22-4s5.13,1.74,5.32,4.37H56a2,2,0,0,0-2.21-1.72c-1.24,0-1.88.5-1.88,1.26,0,2.41,7.31.91,7.41,5.75,0,2.26-2,4-5.2,4"/><path class="cls-3" d="M62.55,152.13H61v-2.74h1.57v-3.27h3.36v3.27h3v2.74h-3v6.39c0,.88.36,1.26,1.41,1.26h1.55v2.81h-2.1c-2.53,0-4.22-1.07-4.22-4.1Z"/><path class="cls-3" d="M76.45,149.17a5.24,5.24,0,0,1,4.36,2.1v-1.88h3.36v13.2H80.81v-1.93a5.21,5.21,0,0,1-4.39,2.15c-3.33,0-6-2.74-6-6.87s2.67-6.77,6-6.77m.86,2.94a3.52,3.52,0,0,0-3.48,3.83,3.62,3.62,0,0,0,3.48,3.94,3.91,3.91,0,0,0,0-7.77"/><path class="cls-3" d="M92.6,149.17a5.19,5.19,0,0,1,4.37,2.1v-1.88h3.36v13.3c0,3.57-2.2,6.41-6.54,6.41-3.71,0-6.31-1.86-6.64-4.89h3.31a3.1,3.1,0,0,0,3.24,2c1.84,0,3.27-1.05,3.27-3.5v-2.05a5.23,5.23,0,0,1-4.37,2.17c-3.36,0-6-2.74-6-6.87s2.67-6.77,6-6.77m.86,2.94A3.52,3.52,0,0,0,90,155.94a3.62,3.62,0,0,0,3.48,3.94,3.91,3.91,0,0,0,0-7.77"/><path class="cls-3" d="M109.36,162.81c-3.84,0-6.63-2.67-6.63-6.82s2.72-6.82,6.63-6.82a6.2,6.2,0,0,1,6.5,6.53,8,8,0,0,1-.09,1.29h-9.65a3.08,3.08,0,0,0,3.16,3,2.72,2.72,0,0,0,2.65-1.6h3.6a6.14,6.14,0,0,1-6.17,4.37m-3.22-8.06h6.27a2.93,2.93,0,0,0-3.15-2.83,3.06,3.06,0,0,0-3.12,2.83"/></g></g></g></svg>