<svg id="Layer_1" data-name="Layer 1" xmlns="http://www.w3.org/2000/svg" xmlns:xlink="http://www.w3.org/1999/xlink" viewBox="0 0 110 110"><defs><style>.cls-1{fill:none;}.cls-2{font-size:12px;fill:#fff;font-family:Poppins-SemiBold, Poppins;font-weight:600;}.cls-3{clip-path:url(#clip-path);}.cls-4{clip-path:url(#clip-path-2);}.cls-5{fill:url(#linear-gradient);}.cls-6{clip-path:url(#clip-path-3);}.cls-7{fill:url(#linear-gradient-2);}.cls-8{clip-path:url(#clip-path-4);}.cls-9{fill:url(#linear-gradient-3);}</style><clipPath id="clip-path"><rect class="cls-1" x="17.43" y="15.83" width="65.21" height="78.33"/></clipPath><clipPath id="clip-path-2"><path class="cls-1" d="M18.61,52.84a33,33,0,0,0-1.18,8.72c0,1,.05,1.92.13,2.86A40.85,40.85,0,0,1,64.83,90.61a32.66,32.66,0,0,0,9.28-7.07A51.81,51.81,0,0,0,26.5,52.25a53.42,53.42,0,0,0-7.89.59"/></clipPath><linearGradient id="linear-gradient" x1="-1518.04" y1="-818.76" x2="-1516.16" y2="-818.76" gradientTransform="matrix(41.87, 0, 0, -41.87, 63552.68, -34206.99)" gradientUnits="userSpaceOnUse"><stop offset="0" stop-color="#193154"/><stop offset="1" stop-color="#e51947"/></linearGradient><clipPath id="clip-path-3"><path class="cls-1" d="M50,15.84V29A32.57,32.57,0,0,0,24.1,41.8,62.11,62.11,0,0,1,80.56,73a32.56,32.56,0,0,0,2.08-11.47V15.84Z"/></clipPath><linearGradient id="linear-gradient-2" x1="-1518.04" y1="-818.68" x2="-1516.16" y2="-818.68" gradientTransform="matrix(41.87, 0, 0, -41.87, 63532.35, -34230.51)" xlink:href="#linear-gradient"/><clipPath id="clip-path-4"><path class="cls-1" d="M20.14,74.58a32.7,32.7,0,0,0,9.78,12.64,8.5,8.5,0,0,1,6.91,1.48h0a8.55,8.55,0,0,1,2.86,3.78A32.42,32.42,0,0,0,50,94.17a33.1,33.1,0,0,0,4.81-.36A30.52,30.52,0,0,0,26.26,74a31.36,31.36,0,0,0-6.12.61"/></clipPath><linearGradient id="linear-gradient-3" x1="-1518.04" y1="-818.71" x2="-1516.16" y2="-818.71" gradientTransform="matrix(41.87, 0, 0, -41.87, 63559.17, -34192.5)" xlink:href="#linear-gradient"/></defs><text class="cls-2" transform="translate(-18.07 53.17) rotate(-90)">110x110px</text><g id="digitalstageIcon_colour"><g class="cls-3"><g class="cls-4"><rect class="cls-5" x="17.71" y="38.1" width="56.11" height="66.66" transform="translate(-37.31 88.6) rotate(-69.03)"/></g><g class="cls-6"><rect class="cls-7" x="16.19" y="6.87" width="74.36" height="75.13" transform="translate(-7.22 78.36) rotate(-69.03)"/></g><g class="cls-8"><rect class="cls-9" x="21.85" y="64.25" width="31.28" height="39.63" transform="translate(-54.43 88.98) rotate(-69.03)"/></g></g></g></svg>