<svg id="Layer_1" data-name="Layer 1" xmlns="http://www.w3.org/2000/svg" xmlns:xlink="http://www.w3.org/1999/xlink" viewBox="0 0 180 180"><defs><style>.cls-1{fill:none;}.cls-2{fill:url(#linear-gradient);}.cls-3{font-size:6.9px;}.cls-3,.cls-4,.cls-7{fill:#fff;}.cls-3,.cls-4{font-family:Poppins-SemiBold, Poppins;font-weight:600;}.cls-4{font-size:10.36px;}.cls-5{clip-path:url(#clip-path);}.cls-6{clip-path:url(#clip-path-2);}</style><linearGradient id="linear-gradient" x1="-1.27" y1="177.65" x2="182.29" y2="1.36" gradientUnits="userSpaceOnUse"><stop offset="0" stop-color="#193154"/><stop offset="1" stop-color="#e51947"/></linearGradient><clipPath id="clip-path"><rect class="cls-1" x="25.19" y="40.26" width="129.62" height="50.04"/></clipPath><clipPath id="clip-path-2"><rect class="cls-1" x="25.19" y="40.26" width="129.62" height="50.04"/></clipPath></defs><rect class="cls-2" width="180" height="180"/><text class="cls-3" transform="translate(21.89 141.02)">Your digital stage for art, music <tspan x="0" y="9.06">and theater ensembles.</tspan></text><text class="cls-4" transform="translate(21.89 127.1)">Rehearse and perform live</text><g id="digitalestageWhite"><g class="cls-5"><g class="cls-6"><path class="cls-7" d="M82.48,45.8A5.67,5.67,0,0,1,87,47.94V41.39h3.55V59.84H87v-2a5.21,5.21,0,0,1-4.53,2.27c-3.52,0-6.31-2.87-6.31-7.19s2.79-7.08,6.33-7.08m.87,3.07a3.68,3.68,0,0,0-3.64,4c0,2.62,1.77,4.12,3.64,4.12A3.73,3.73,0,0,0,87,52.93a3.72,3.72,0,0,0-3.67-4.06"/><path class="cls-7" d="M93.58,42.33a2.15,2.15,0,1,1,2.14,2.05,2,2,0,0,1-2.14-2.05M94,46h3.49V59.84H94Z"/><path class="cls-7" d="M106.3,45.8A5.41,5.41,0,0,1,110.86,48V46h3.52V59.94c0,3.74-2.3,6.71-6.84,6.71-3.89,0-6.6-2-7-5.11h3.46c.35,1.24,1.65,2.07,3.4,2.07,1.92,0,3.41-1.1,3.41-3.67V57.8a5.46,5.46,0,0,1-4.56,2.27c-3.52,0-6.31-2.87-6.31-7.19s2.79-7.08,6.31-7.08m.9,3.07a3.68,3.68,0,0,0-3.65,4c0,2.62,1.77,4.12,3.65,4.12s3.66-1.45,3.66-4.07-1.74-4.06-3.66-4.06"/><path class="cls-7" d="M117.42,42.33a2.15,2.15,0,1,1,2.15,2.05,2.05,2.05,0,0,1-2.15-2.05M117.8,46h3.49V59.84H117.8Z"/><path class="cls-7" d="M125.28,48.89h-1.65V46h1.65V42.61h3.51V46h3.1v2.87h-3.1v6.69c0,.92.38,1.32,1.47,1.32h1.63v2.94h-2.2c-2.64,0-4.41-1.12-4.41-4.29Z"/><path class="cls-7" d="M139.82,45.8A5.47,5.47,0,0,1,144.38,48V46h3.52V59.84h-3.52v-2a5.44,5.44,0,0,1-4.59,2.25c-3.49,0-6.28-2.87-6.28-7.19s2.79-7.08,6.31-7.08m.9,3.07a3.68,3.68,0,0,0-3.65,4c0,2.62,1.77,4.12,3.65,4.12s3.66-1.45,3.66-4.07-1.74-4.06-3.66-4.06"/><rect class="cls-7" x="151.32" y="41.39" width="3.49" height="18.46"/><path class="cls-7" d="M82.33,83.72c-3.47,0-5.88-2-6-4.59h3.51A2.3,2.3,0,0,0,82.31,81c1.37,0,2.12-.63,2.12-1.42,0-2.47-7.81-.9-7.81-6,0-2.29,2-4.14,5.46-4.14s5.36,1.82,5.56,4.57H84.3A2.06,2.06,0,0,0,82,72.22c-1.3,0-2,.53-2,1.32,0,2.52,7.66.95,7.76,6,0,2.36-2.07,4.16-5.44,4.16"/><path class="cls-7" d="M91.18,72.55H89.54V69.68h1.64V66.26H94.7v3.42h3.1v2.87H94.7v6.68c0,.92.38,1.32,1.47,1.32H97.8v3H95.6c-2.64,0-4.42-1.13-4.42-4.29Z"/><path class="cls-7" d="M105.73,69.45a5.45,5.45,0,0,1,4.56,2.2v-2h3.52V83.5h-3.52v-2a5.46,5.46,0,0,1-4.59,2.24c-3.49,0-6.28-2.87-6.28-7.18s2.79-7.09,6.31-7.09m.89,3.07a3.69,3.69,0,0,0-3.64,4c0,2.61,1.77,4.11,3.64,4.11a4.09,4.09,0,0,0,0-8.13"/><path class="cls-7" d="M122.64,69.45a5.39,5.39,0,0,1,4.56,2.2v-2h3.52V83.6c0,3.74-2.3,6.7-6.84,6.7-3.89,0-6.61-1.94-7-5.11h3.47c.35,1.25,1.65,2.07,3.39,2.07,1.92,0,3.42-1.1,3.42-3.66V81.45a5.43,5.43,0,0,1-4.56,2.27c-3.52,0-6.31-2.87-6.31-7.18s2.79-7.09,6.31-7.09m.89,3.07a3.69,3.69,0,0,0-3.64,4c0,2.61,1.77,4.11,3.64,4.11a4.09,4.09,0,0,0,0-8.13"/><path class="cls-7" d="M140.17,83.72c-4,0-6.93-2.79-6.93-7.13s2.84-7.14,6.93-7.14A6.49,6.49,0,0,1,147,76.29a8.54,8.54,0,0,1-.1,1.34h-10.1a3.23,3.23,0,0,0,3.31,3.2,2.85,2.85,0,0,0,2.77-1.67h3.77a6.42,6.42,0,0,1-6.46,4.56m-3.37-8.43h6.56a3.07,3.07,0,0,0-3.29-3,3.22,3.22,0,0,0-3.27,3"/><path class="cls-7" d="M48.79,68.71A33.17,33.17,0,0,0,26,63.9a20.94,20.94,0,0,0-.76,5.58c0,.61,0,1.22.09,1.82A26.08,26.08,0,0,1,55.47,88a20.68,20.68,0,0,0,5.93-4.51A33,33,0,0,0,48.79,68.71"/><path class="cls-7" d="M52.4,63A39.43,39.43,0,0,1,65.52,76.8a20.68,20.68,0,0,0,1.33-7.33V40.26H46v8.39a20.77,20.77,0,0,0-16.56,8.2A39.61,39.61,0,0,1,52.4,63"/><path class="cls-7" d="M41.31,80.45a19.56,19.56,0,0,0-14.39-2.66,20.91,20.91,0,0,0,6.26,8.08,5.4,5.4,0,0,1,4.41.94h0a5.45,5.45,0,0,1,1.83,2.42A20.89,20.89,0,0,0,46,90.3a20.64,20.64,0,0,0,3.07-.22,19.5,19.5,0,0,0-7.78-9.63"/></g></g></g></svg>