<svg id="Layer_1" data-name="Layer 1" xmlns="http://www.w3.org/2000/svg" xmlns:xlink="http://www.w3.org/1999/xlink" viewBox="0 0 110 110"><defs><style>.cls-1{fill:url(#linear-gradient);}.cls-2{fill:#fff;}</style><linearGradient id="linear-gradient" x1="-0.78" y1="108.57" x2="111.4" y2="0.83" gradientUnits="userSpaceOnUse"><stop offset="0" stop-color="#193154"/><stop offset="1" stop-color="#e51947"/></linearGradient></defs><rect class="cls-1" width="110" height="110"/><path class="cls-2" d="M54.85,60.08A49.11,49.11,0,0,0,21,53a30.85,30.85,0,0,0-1.13,8.26c0,.92.05,1.82.13,2.72a38.67,38.67,0,0,1,44.78,24.8A30.83,30.83,0,0,0,73.56,82,49.05,49.05,0,0,0,54.85,60.08Z"/><path class="cls-2" d="M60.21,51.67A58.6,58.6,0,0,1,79.67,72.08a30.83,30.83,0,0,0,2-10.87V17.9H50.75V30.33A30.8,30.8,0,0,0,26.19,42.5,58.68,58.68,0,0,1,60.21,51.67Z"/><path class="cls-2" d="M43.76,77.5a28.92,28.92,0,0,0-21.33-4,31,31,0,0,0,9.27,12,8.07,8.07,0,0,1,6.55,1.4h0A8,8,0,0,1,41,90.51a30.81,30.81,0,0,0,9.79,1.59,31.18,31.18,0,0,0,4.56-.34A28.89,28.89,0,0,0,43.76,77.5Z"/></svg>