<svg id="Layer_1" data-name="Layer 1" xmlns="http://www.w3.org/2000/svg" xmlns:xlink="http://www.w3.org/1999/xlink" viewBox="0 0 128 128"><defs><style>.cls-1{fill:none;}.cls-2{font-size:12px;fill:#fff;font-family:Poppins-SemiBold, Poppins;font-weight:600;}.cls-3{clip-path:url(#clip-path);}.cls-4{clip-path:url(#clip-path-2);}.cls-5{fill:url(#linear-gradient);}.cls-6{clip-path:url(#clip-path-3);}.cls-7{fill:url(#linear-gradient-2);}.cls-8{clip-path:url(#clip-path-4);}.cls-9{fill:url(#linear-gradient-3);}</style><clipPath id="clip-path"><rect class="cls-1" x="10" y="1" width="104.57" height="125.61"/></clipPath><clipPath id="clip-path-2"><path class="cls-1" d="M11.91,60.34a52.48,52.48,0,0,0-1.91,14c0,1.55.08,3.08.21,4.6a65.5,65.5,0,0,1,75.81,42,52.46,52.46,0,0,0,14.88-11.33A83.12,83.12,0,0,0,24.56,59.39a84.9,84.9,0,0,0-12.65,1"/></clipPath><linearGradient id="linear-gradient" x1="-1543.14" y1="-1908.2" x2="-1540.13" y2="-1908.2" gradientTransform="matrix(41.87, 0, 0, -41.87, 64584.67, -79799.29)" gradientUnits="userSpaceOnUse"><stop offset="0" stop-color="#193154"/><stop offset="1" stop-color="#e51947"/></linearGradient><clipPath id="clip-path-3"><path class="cls-1" d="M62.29,1V22a52.16,52.16,0,0,0-41.58,20.6A99.4,99.4,0,0,1,78.3,58.17a99.18,99.18,0,0,1,32.93,34.55,52,52,0,0,0,3.34-18.4V1Z"/></clipPath><linearGradient id="linear-gradient-2" x1="-1543.14" y1="-1908.08" x2="-1540.13" y2="-1908.08" gradientTransform="matrix(41.87, 0, 0, -41.87, 64552.08, -79837.56)" xlink:href="#linear-gradient"/><clipPath id="clip-path-4"><path class="cls-1" d="M14.35,95.21A52.56,52.56,0,0,0,30,115.47a13.67,13.67,0,0,1,11.08,2.37h0a13.67,13.67,0,0,1,4.59,6.06,51.89,51.89,0,0,0,16.57,2.7A53,53,0,0,0,70,126,48.89,48.89,0,0,0,24.17,94.23a49.78,49.78,0,0,0-9.82,1"/></clipPath><linearGradient id="linear-gradient-3" x1="-1543.14" y1="-1908.11" x2="-1540.13" y2="-1908.11" gradientTransform="matrix(41.87, 0, 0, -41.87, 64595.08, -79775.24)" xlink:href="#linear-gradient"/></defs><text class="cls-2" transform="translate(-18.07 57.74) rotate(-90)">128x128px</text><g id="digitalstageIcon_colour"><g class="cls-3"><g class="cls-4"><rect class="cls-5" x="10.46" y="36.7" width="89.98" height="106.89" transform="translate(-48.58 109.66) rotate(-69.03)"/></g><g class="cls-6"><rect class="cls-7" x="8.02" y="-13.38" width="119.24" height="120.47" transform="translate(-0.33 93.24) rotate(-69.03)"/></g><g class="cls-8"><rect class="cls-9" x="17.1" y="78.64" width="50.15" height="63.55" transform="translate(-76.03 110.28) rotate(-69.03)"/></g></g></g></svg>