<svg id="Layer_1" data-name="Layer 1" xmlns="http://www.w3.org/2000/svg" xmlns:xlink="http://www.w3.org/1999/xlink" viewBox="0 0 400 400"><defs><style>.cls-1{font-size:12px;font-family:Poppins-SemiBold, Poppins;font-weight:600;}.cls-1,.cls-3{fill:#fff;}.cls-2{fill:url(#linear-gradient);}</style><linearGradient id="linear-gradient" x1="-2.39" y1="394.78" x2="405.54" y2="3.03" gradientUnits="userSpaceOnUse"><stop offset="0" stop-color="#193154"/><stop offset="1" stop-color="#e51947"/></linearGradient></defs><text class="cls-1" transform="translate(-18.07 67.7) rotate(-90)">400x400px</text><rect class="cls-2" x="0.44" width="400" height="400"/><path class="cls-3" d="M199.91,218.47A178.67,178.67,0,0,0,76.76,192.56a112.76,112.76,0,0,0-4.09,30c0,3.32.17,6.6.46,9.86A140.69,140.69,0,0,1,236,322.67a112.72,112.72,0,0,0,32-24.34A178.3,178.3,0,0,0,199.91,218.47Z"/><path class="cls-3" d="M219.4,187.89a213.31,213.31,0,0,1,70.73,74.22,111.82,111.82,0,0,0,7.17-39.51V65.09H185v45.19a112.08,112.08,0,0,0-89.32,44.25A213.64,213.64,0,0,1,219.4,187.89Z"/><path class="cls-3" d="M159.56,281.8A105.29,105.29,0,0,0,82,267.45,112.64,112.64,0,0,0,115.72,311a29.34,29.34,0,0,1,23.8,5.1h0a29.23,29.23,0,0,1,9.87,13A112,112,0,0,0,185,334.91a113.19,113.19,0,0,0,16.57-1.22A105,105,0,0,0,159.56,281.8Z"/></svg>