<svg id="Layer_1" data-name="Layer 1" xmlns="http://www.w3.org/2000/svg" viewBox="0 0 150 80"><path d="M68.18,24.51a4.69,4.69,0,0,1,3.71,1.76V20.88H74.8V36.05H71.89V34.37a4.31,4.31,0,0,1-3.73,1.86c-2.89,0-5.19-2.36-5.19-5.9S65.27,24.51,68.18,24.51ZM68.9,27a3,3,0,0,0-3,3.3,3.11,3.11,0,0,0,3,3.38,3.06,3.06,0,0,0,3-3.34A3.06,3.06,0,0,0,68.9,27Z"/><path d="M77.3,21.66a1.76,1.76,0,1,1,1.76,1.68A1.68,1.68,0,0,1,77.3,21.66Zm.31,3h2.86V36.05H77.61Z"/><path d="M87.75,24.51a4.46,4.46,0,0,1,3.75,1.8V24.69h2.89V36.13c0,3.07-1.89,5.51-5.62,5.51-3.19,0-5.43-1.6-5.71-4.2H85.9a2.68,2.68,0,0,0,2.79,1.7c1.58,0,2.81-.9,2.81-3V34.37a4.49,4.49,0,0,1-3.75,1.86c-2.89,0-5.19-2.36-5.19-5.9S84.86,24.51,87.75,24.51ZM88.49,27a3,3,0,0,0-3,3.3,3.11,3.11,0,0,0,3,3.38,3.06,3.06,0,0,0,3-3.34A3.06,3.06,0,0,0,88.49,27Z"/><path d="M96.89,21.66a1.76,1.76,0,1,1,1.76,1.68A1.68,1.68,0,0,1,96.89,21.66Zm.3,3h2.87V36.05H97.19Z"/><path d="M103.34,27.05H102V24.69h1.35v-2.8h2.89v2.8h2.54v2.36h-2.54v5.49c0,.76.31,1.09,1.21,1.09h1.33v2.42H107c-2.17,0-3.63-.93-3.63-3.53Z"/><path d="M115.29,24.51a4.51,4.51,0,0,1,3.75,1.8V24.69h2.89V36.05H119V34.39a4.49,4.49,0,0,1-3.77,1.84c-2.87,0-5.17-2.36-5.17-5.9S112.4,24.51,115.29,24.51ZM116,27a3,3,0,0,0-3,3.3,3.11,3.11,0,0,0,3,3.38,3.06,3.06,0,0,0,3-3.34A3.06,3.06,0,0,0,116,27Z"/><path d="M124.74,20.88h2.86V36.05h-2.86Z"/><path d="M68.06,55.66c-2.85,0-4.84-1.65-5-3.77H66A1.88,1.88,0,0,0,68,53.41c1.12,0,1.74-.51,1.74-1.17,0-2-6.42-.74-6.42-4.9,0-1.88,1.68-3.4,4.49-3.4s4.41,1.5,4.57,3.75H69.67a1.68,1.68,0,0,0-1.9-1.47c-1.07,0-1.62.43-1.62,1.08,0,2.07,6.29.78,6.37,4.94C72.52,54.19,70.82,55.66,68.06,55.66Z"/><path d="M75.33,46.48H74V44.13h1.35V41.32h2.89v2.81h2.54v2.35H78.22V52c0,.75.31,1.08,1.21,1.08h1.33v2.42H79c-2.17,0-3.63-.92-3.63-3.52Z"/><path d="M87.28,43.94A4.48,4.48,0,0,1,91,45.75V44.13h2.89V55.48H91V53.82a4.49,4.49,0,0,1-3.77,1.84c-2.87,0-5.17-2.35-5.17-5.9S84.39,43.94,87.28,43.94ZM88,46.46a3,3,0,0,0-3,3.3,3.11,3.11,0,0,0,3,3.38,3.05,3.05,0,0,0,3-3.34A3.06,3.06,0,0,0,88,46.46Z"/><path d="M101.17,43.94a4.42,4.42,0,0,1,3.75,1.81V44.13h2.89V55.56c0,3.08-1.88,5.51-5.61,5.51-3.2,0-5.43-1.59-5.72-4.2h2.85a2.65,2.65,0,0,0,2.78,1.7c1.58,0,2.81-.9,2.81-3V53.8a4.48,4.48,0,0,1-3.75,1.86c-2.89,0-5.18-2.35-5.18-5.9S98.28,43.94,101.17,43.94Zm.74,2.52a3,3,0,0,0-3,3.3,3.1,3.1,0,0,0,3,3.38,3,3,0,0,0,3-3.34A3.05,3.05,0,0,0,101.91,46.46Z"/><path d="M115.58,55.66a5.5,5.5,0,0,1-5.7-5.86,5.46,5.46,0,0,1,5.7-5.86,5.33,5.33,0,0,1,5.59,5.62,6.71,6.71,0,0,1-.08,1.1h-8.3a2.65,2.65,0,0,0,2.73,2.63,2.34,2.34,0,0,0,2.27-1.38h3.1A5.28,5.28,0,0,1,115.58,55.66Zm-2.77-6.92h5.39a2.52,2.52,0,0,0-2.7-2.44A2.64,2.64,0,0,0,112.81,48.74Z"/><path d="M40.5,43.33a27.27,27.27,0,0,0-18.77-3.95A17.28,17.28,0,0,0,21.11,44c0,.51,0,1,.07,1.5A21.44,21.44,0,0,1,46,59.21a17.2,17.2,0,0,0,4.87-3.71A27.21,27.21,0,0,0,40.5,43.33Z"/><path d="M43.47,38.67A32.59,32.59,0,0,1,54.25,50a17.15,17.15,0,0,0,1.09-6V20H38.22v6.89a17.08,17.08,0,0,0-13.61,6.74A32.56,32.56,0,0,1,43.47,38.67Z"/><path d="M34.35,53A16,16,0,0,0,22.53,50.8a17.18,17.18,0,0,0,5.14,6.63,4.47,4.47,0,0,1,3.63.77h0a4.45,4.45,0,0,1,1.5,2,17.1,17.1,0,0,0,5.42.88,17.62,17.62,0,0,0,2.53-.18A16.06,16.06,0,0,0,34.35,53Z"/></svg>