<svg id="Layer_1" data-name="Layer 1" xmlns="http://www.w3.org/2000/svg" xmlns:xlink="http://www.w3.org/1999/xlink" viewBox="0 0 180 180"><defs><style>.cls-1{fill:none;}.cls-2{font-size:12px;fill:#fff;}.cls-11,.cls-12,.cls-2{font-family:Poppins-SemiBold, Poppins;font-weight:600;}.cls-3{clip-path:url(#clip-path);}.cls-4{fill:#e41446;}.cls-5{clip-path:url(#clip-path-3);}.cls-6{fill:url(#linear-gradient);}.cls-7{clip-path:url(#clip-path-4);}.cls-8{fill:url(#linear-gradient-2);}.cls-9{clip-path:url(#clip-path-5);}.cls-10{fill:url(#linear-gradient-3);}.cls-11{font-size:6.9px;}.cls-12{font-size:10.36px;}</style><clipPath id="clip-path"><rect class="cls-1" x="25.89" y="41.08" width="128.22" height="49.5"/></clipPath><clipPath id="clip-path-3"><path class="cls-1" d="M26.64,64.47A20.42,20.42,0,0,0,25.89,70c0,.61,0,1.21.08,1.81A25.82,25.82,0,0,1,55.85,88.34a20.69,20.69,0,0,0,5.86-4.47A32.77,32.77,0,0,0,31.62,64.09a33.2,33.2,0,0,0-5,.38"/></clipPath><linearGradient id="linear-gradient" x1="-1749.74" y1="-823.97" x2="-1748.55" y2="-823.97" gradientTransform="matrix(41.87, 0, 0, -41.87, 73268.86, -34420.58)" gradientUnits="userSpaceOnUse"><stop offset="0" stop-color="#193154"/><stop offset="1" stop-color="#e51947"/></linearGradient><clipPath id="clip-path-4"><path class="cls-1" d="M46.49,41.08v8.29a20.56,20.56,0,0,0-16.38,8.12A39.22,39.22,0,0,1,65.78,77.23,20.54,20.54,0,0,0,67.1,70V41.08Z"/></clipPath><linearGradient id="linear-gradient-2" x1="-1749.74" y1="-823.91" x2="-1748.55" y2="-823.91" gradientTransform="matrix(41.87, 0, 0, -41.87, 73256.01, -34435.11)" xlink:href="#linear-gradient"/><clipPath id="clip-path-5"><path class="cls-1" d="M27.6,78.21a20.68,20.68,0,0,0,6.19,8,5.35,5.35,0,0,1,4.36.94h0A5.4,5.4,0,0,1,40,89.52a20.75,20.75,0,0,0,9.56.84A19.29,19.29,0,0,0,27.6,78.21"/></clipPath><linearGradient id="linear-gradient-3" x1="-1749.74" y1="-823.96" x2="-1748.55" y2="-823.96" gradientTransform="matrix(41.87, 0, 0, -41.87, 73272.96, -34411.92)" xlink:href="#linear-gradient"/></defs><text class="cls-2" transform="translate(-18.59 60.54) rotate(-90)">180x180px</text><g id="digitalstageColour"><g class="cls-3"><g class="cls-3"><path class="cls-4" d="M82.56,46.56A5.63,5.63,0,0,1,87,48.68V42.19h3.5V60.45H87v-2a5.2,5.2,0,0,1-4.49,2.24c-3.48,0-6.25-2.84-6.25-7.1s2.77-7,6.27-7m.86,3a3.65,3.65,0,0,0-3.6,4c0,2.59,1.75,4.07,3.6,4.07a3.68,3.68,0,0,0,3.63-4,3.68,3.68,0,0,0-3.63-4"/><path class="cls-4" d="M93.54,43.13a2.12,2.12,0,1,1,2.12,2,2,2,0,0,1-2.12-2m.37,3.65h3.45V60.45H93.91Z"/><path class="cls-4" d="M106.12,46.56a5.35,5.35,0,0,1,4.52,2.17V46.78h3.48V60.55c0,3.7-2.27,6.64-6.76,6.64-3.85,0-6.54-1.93-6.89-5.06h3.43c.35,1.23,1.63,2.05,3.36,2.05,1.9,0,3.38-1.09,3.38-3.63V58.43a5.41,5.41,0,0,1-4.52,2.24c-3.48,0-6.24-2.84-6.24-7.1s2.76-7,6.24-7m.89,3a3.65,3.65,0,0,0-3.6,4c0,2.59,1.75,4.07,3.6,4.07a3.68,3.68,0,0,0,3.63-4,3.68,3.68,0,0,0-3.63-4"/><path class="cls-4" d="M117.12,43.13a2.13,2.13,0,1,1,2.13,2,2,2,0,0,1-2.13-2m.38,3.65H121V60.45H117.5Z"/><path class="cls-4" d="M124.9,49.62h-1.63V46.78h1.63V43.4h3.48v3.38h3.06v2.84h-3.06v6.61c0,.91.37,1.31,1.45,1.31h1.61v2.91h-2.18c-2.61,0-4.36-1.11-4.36-4.24Z"/><path class="cls-4" d="M139.28,46.56a5.4,5.4,0,0,1,4.52,2.17V46.78h3.48V60.45H143.8v-2a5.39,5.39,0,0,1-4.54,2.22c-3.46,0-6.22-2.84-6.22-7.1s2.76-7,6.24-7m.89,3a3.65,3.65,0,0,0-3.6,4c0,2.59,1.75,4.07,3.6,4.07a3.68,3.68,0,0,0,3.63-4,3.68,3.68,0,0,0-3.63-4"/><rect class="cls-4" x="150.66" y="42.19" width="3.45" height="18.26"/><path class="cls-4" d="M82.41,84.07c-3.43,0-5.82-2-6-4.54h3.48a2.27,2.27,0,0,0,2.47,1.83c1.35,0,2.1-.62,2.1-1.41,0-2.44-7.73-.89-7.73-5.9,0-2.27,2-4.09,5.41-4.09s5.3,1.8,5.5,4.51H84.36a2,2,0,0,0-2.29-1.77c-1.29,0-1.95.51-1.95,1.3,0,2.5,7.57.94,7.67,6,0,2.34-2.05,4.12-5.38,4.12"/><path class="cls-4" d="M91.17,73H89.54V70.18h1.63V66.8h3.48v3.38h3.06V73H94.65v6.61c0,.91.37,1.31,1.46,1.31h1.6v2.91H95.54c-2.62,0-4.37-1.11-4.37-4.24Z"/><path class="cls-4" d="M105.56,70a5.38,5.38,0,0,1,4.51,2.17V70.18h3.48V83.85h-3.48v-2a5.4,5.4,0,0,1-4.54,2.22c-3.45,0-6.22-2.84-6.22-7.11s2.77-7,6.25-7m.89,3a3.64,3.64,0,0,0-3.61,4c0,2.6,1.75,4.08,3.61,4.08s3.62-1.43,3.62-4a3.68,3.68,0,0,0-3.62-4"/><path class="cls-4" d="M122.28,70a5.33,5.33,0,0,1,4.52,2.17V70.18h3.48V84c0,3.7-2.27,6.63-6.76,6.63-3.85,0-6.54-1.92-6.89-5h3.43c.35,1.23,1.63,2,3.36,2,1.9,0,3.38-1.09,3.38-3.63V81.83a5.4,5.4,0,0,1-4.52,2.24c-3.47,0-6.24-2.84-6.24-7.11s2.77-7,6.24-7m.89,3a3.64,3.64,0,0,0-3.6,4c0,2.6,1.75,4.08,3.6,4.08a4,4,0,0,0,0-8.05"/><path class="cls-4" d="M139.63,84.07c-4,0-6.86-2.76-6.86-7.06S135.58,70,139.63,70a6.42,6.42,0,0,1,6.74,6.76,8.51,8.51,0,0,1-.1,1.33h-10a3.21,3.21,0,0,0,3.28,3.16,2.81,2.81,0,0,0,2.74-1.65H146a6.36,6.36,0,0,1-6.39,4.51m-3.33-8.34h6.49a3,3,0,0,0-3.26-2.93,3.17,3.17,0,0,0-3.23,2.93"/></g><g class="cls-5"><rect class="cls-6" x="26.07" y="55.15" width="35.46" height="42.12" transform="translate(-43.04 89.83) rotate(-69.03)"/></g><g class="cls-7"><rect class="cls-8" x="25.11" y="35.42" width="46.99" height="47.48" transform="translate(-24.03 83.36) rotate(-69.03)"/></g><g class="cls-9"><rect class="cls-10" x="28.69" y="71.68" width="19.77" height="25.05" transform="translate(-53.86 90.08) rotate(-69.03)"/></g></g></g><text class="cls-11" transform="translate(25.89 138.78)">Your digital stage for art, music <tspan x="0" y="9.06">and theater ensembles.</tspan></text><text class="cls-12" transform="translate(25.89 124.87)">Rehearse and perform live</text></svg>