<svg id="Layer_1" data-name="Layer 1" xmlns="http://www.w3.org/2000/svg" xmlns:xlink="http://www.w3.org/1999/xlink" viewBox="0 0 100 50"><defs><style>.cls-1{fill:none;}.cls-2{font-size:12px;fill:#fff;font-family:Poppins-SemiBold, Poppins;font-weight:600;}.cls-3{clip-path:url(#clip-path);}.cls-4{fill:#e41446;}.cls-5{clip-path:url(#clip-path-3);}.cls-6{fill:url(#linear-gradient);}.cls-7{clip-path:url(#clip-path-4);}.cls-8{fill:url(#linear-gradient-2);}.cls-9{clip-path:url(#clip-path-5);}.cls-10{fill:url(#linear-gradient-3);}</style><clipPath id="clip-path"><rect class="cls-1" x="4.49" y="7.43" width="91.03" height="35.14"/></clipPath><clipPath id="clip-path-3"><path class="cls-1" d="M5,24a14.88,14.88,0,0,0-.53,3.91c0,.44,0,.86.06,1.29A18.31,18.31,0,0,1,25.75,41a14.77,14.77,0,0,0,4.17-3.17,23.26,23.26,0,0,0-21.36-14A24.59,24.59,0,0,0,5,24"/></clipPath><linearGradient id="linear-gradient" x1="-1721.32" y1="-387.75" x2="-1720.47" y2="-387.75" gradientTransform="matrix(41.87, 0, 0, -41.87, 72061.09, -16201.46)" gradientUnits="userSpaceOnUse"><stop offset="0" stop-color="#193154"/><stop offset="1" stop-color="#e51947"/></linearGradient><clipPath id="clip-path-4"><path class="cls-1" d="M19.12,7.43v5.88A14.62,14.62,0,0,0,7.48,19.08a27.84,27.84,0,0,1,25.33,14,14.62,14.62,0,0,0,.93-5.15V7.43Z"/></clipPath><linearGradient id="linear-gradient-2" x1="-1721.32" y1="-387.7" x2="-1720.47" y2="-387.7" gradientTransform="matrix(41.87, 0, 0, -41.87, 72051.97, -16211.51)" xlink:href="#linear-gradient"/><clipPath id="clip-path-5"><path class="cls-1" d="M5.7,33.79a14.73,14.73,0,0,0,4.39,5.66,3.83,3.83,0,0,1,3.1.67h0a3.79,3.79,0,0,1,1.28,1.7,14.79,14.79,0,0,0,4.64.75,13.86,13.86,0,0,0,2.15-.16,13.68,13.68,0,0,0-12.82-8.9,13.44,13.44,0,0,0-2.75.28"/></clipPath><linearGradient id="linear-gradient-3" x1="-1721.32" y1="-387.75" x2="-1720.47" y2="-387.75" gradientTransform="matrix(41.87, 0, 0, -41.87, 72064, -16195.71)" xlink:href="#linear-gradient"/></defs><text class="cls-2" transform="translate(0 -19.95)"><tspan xml:space="preserve">Web  for </tspan><tspan x="0" y="14.4">Partners Logo</tspan></text><g id="digitalstageColour"><g class="cls-3"><g class="cls-3"><path class="cls-4" d="M44.72,11.32a4,4,0,0,1,3.17,1.5V8.22h2.49v13H47.89V19.74a3.68,3.68,0,0,1-3.19,1.6c-2.47,0-4.43-2-4.43-5.05s2-5,4.45-5m.61,2.15a2.58,2.58,0,0,0-2.55,2.82,2.65,2.65,0,0,0,2.55,2.89,2.61,2.61,0,0,0,2.58-2.85,2.62,2.62,0,0,0-2.58-2.86"/><path class="cls-4" d="M52.51,8.88A1.51,1.51,0,1,1,54,10.32a1.44,1.44,0,0,1-1.51-1.44m.27,2.59h2.45v9.71H52.78Z"/><path class="cls-4" d="M61.44,11.32a3.8,3.8,0,0,1,3.21,1.54V11.47h2.47v9.78A4.43,4.43,0,0,1,62.32,26c-2.73,0-4.64-1.37-4.89-3.59h2.44a2.51,2.51,0,0,0,4.78-1.12V19.74a3.84,3.84,0,0,1-3.21,1.6c-2.46,0-4.43-2-4.43-5.05s2-5,4.43-5m.64,2.15a2.59,2.59,0,0,0-2.56,2.82,2.65,2.65,0,0,0,2.56,2.89,2.6,2.6,0,0,0,2.57-2.85,2.61,2.61,0,0,0-2.57-2.86"/><path class="cls-4" d="M69.26,8.88a1.43,1.43,0,0,1,1.5-1.43,1.44,1.44,0,1,1-1.5,1.43m.26,2.59H72v9.71H69.52Z"/><path class="cls-4" d="M74.77,13.49H73.62v-2h1.15V9.07h2.47v2.4h2.18v2H77.24v4.69c0,.65.27.93,1,.93h1.14v2.07H77.87c-1.85,0-3.1-.79-3.1-3Z"/><path class="cls-4" d="M85,11.32a3.83,3.83,0,0,1,3.2,1.54V11.47h2.47v9.71H88.19V19.76A3.83,3.83,0,0,1,85,21.34c-2.45,0-4.42-2-4.42-5.05s2-5,4.44-5m.63,2.15a2.59,2.59,0,0,0-2.56,2.82,2.65,2.65,0,0,0,2.56,2.89,2.6,2.6,0,0,0,2.57-2.85,2.61,2.61,0,0,0-2.57-2.86"/><rect class="cls-4" x="93.06" y="8.22" width="2.45" height="12.96"/><path class="cls-4" d="M44.61,38c-2.43,0-4.13-1.42-4.23-3.23h2.46A1.62,1.62,0,0,0,44.6,36c1,0,1.49-.44,1.49-1,0-1.73-5.49-.63-5.49-4.18,0-1.62,1.44-2.91,3.84-2.91s3.76,1.28,3.9,3.2H46a1.45,1.45,0,0,0-1.63-1.26c-.91,0-1.39.37-1.39.93,0,1.77,5.38.67,5.45,4.22C48.43,36.69,47,38,44.61,38"/><path class="cls-4" d="M50.83,30.1H49.68v-2h1.15v-2.4H53.3v2.4h2.17v2H53.3v4.69c0,.65.26.93,1,.93h1.13v2.07H53.93c-1.85,0-3.1-.79-3.1-3Z"/><path class="cls-4" d="M61,27.93a3.84,3.84,0,0,1,3.21,1.54V28.09h2.47v9.7H64.25V36.37A3.83,3.83,0,0,1,61,38c-2.46,0-4.42-2-4.42-5.05s2-5,4.43-5m.63,2.15a2.58,2.58,0,0,0-2.55,2.82,2.65,2.65,0,0,0,2.55,2.89,2.61,2.61,0,0,0,2.58-2.85,2.62,2.62,0,0,0-2.58-2.86"/><path class="cls-4" d="M72.92,27.93a3.78,3.78,0,0,1,3.2,1.54V28.09h2.47v9.77a4.43,4.43,0,0,1-4.8,4.71c-2.73,0-4.64-1.36-4.88-3.59h2.43a2.51,2.51,0,0,0,4.78-1.12V36.35a3.82,3.82,0,0,1-3.2,1.6c-2.47,0-4.43-2-4.43-5.05s2-5,4.43-5m.63,2.15A2.59,2.59,0,0,0,71,32.9a2.66,2.66,0,0,0,2.56,2.89,2.6,2.6,0,0,0,2.57-2.85,2.61,2.61,0,0,0-2.57-2.86"/><path class="cls-4" d="M85.23,38a4.7,4.7,0,0,1-4.87-5,4.66,4.66,0,0,1,4.87-5A4.56,4.56,0,0,1,90,32.73a5,5,0,0,1-.07.94H82.85a2.26,2.26,0,0,0,2.33,2.24,2,2,0,0,0,1.94-1.17h2.65A4.52,4.52,0,0,1,85.23,38M82.87,32h4.6a2.16,2.16,0,0,0-2.31-2.09A2.26,2.26,0,0,0,82.87,32"/></g><g class="cls-5"><rect class="cls-6" x="4.62" y="17.42" width="25.17" height="29.9" transform="translate(-19.18 36.85) rotate(-69.03)"/></g><g class="cls-7"><rect class="cls-8" x="3.93" y="3.41" width="33.36" height="33.71" transform="translate(-5.68 32.25) rotate(-69.03)"/></g><g class="cls-9"><rect class="cls-10" x="6.47" y="29.15" width="14.03" height="17.78" transform="translate(-26.86 37.02) rotate(-69.03)"/></g></g></g></svg>