<svg id="Layer_1" data-name="Layer 1" xmlns="http://www.w3.org/2000/svg" xmlns:xlink="http://www.w3.org/1999/xlink" viewBox="0 0 100 50"><defs><style>.cls-1{fill:none;}.cls-2{clip-path:url(#clip-path);}.cls-3{clip-path:url(#clip-path-2);}.cls-4{fill:#fff;}</style><clipPath id="clip-path"><rect class="cls-1" x="4.46" y="7.42" width="91.07" height="35.16"/></clipPath><clipPath id="clip-path-2"><rect class="cls-1" x="4.46" y="7.42" width="91.07" height="35.16"/></clipPath></defs><g id="digitalestageWhite"><g class="cls-2"><g class="cls-3"><path class="cls-4" d="M44.72,11.31a4,4,0,0,1,3.17,1.51V8.21h2.49v13H47.89V19.74a3.68,3.68,0,0,1-3.19,1.59c-2.47,0-4.43-2-4.43-5s2-5,4.45-5m.61,2.16a2.59,2.59,0,0,0-2.56,2.82,2.65,2.65,0,0,0,2.56,2.89,2.62,2.62,0,0,0,2.58-2.86,2.61,2.61,0,0,0-2.58-2.85"/><path class="cls-4" d="M52.51,8.87A1.51,1.51,0,1,1,54,10.31a1.44,1.44,0,0,1-1.51-1.44m.27,2.6h2.45v9.71H52.78Z"/><path class="cls-4" d="M61.45,11.31a3.8,3.8,0,0,1,3.21,1.54V11.47h2.47v9.78A4.43,4.43,0,0,1,62.33,26c-2.74,0-4.65-1.37-4.89-3.59h2.43a2.3,2.3,0,0,0,2.39,1.45,2.27,2.27,0,0,0,2.4-2.57V19.74a3.83,3.83,0,0,1-3.21,1.59c-2.47,0-4.43-2-4.43-5s2-5,4.43-5m.63,2.16a2.59,2.59,0,0,0-2.56,2.82,2.66,2.66,0,0,0,2.56,2.89,2.62,2.62,0,0,0,2.58-2.86,2.61,2.61,0,0,0-2.58-2.85"/><path class="cls-4" d="M69.27,8.87a1.43,1.43,0,0,1,1.5-1.43,1.44,1.44,0,1,1-1.5,1.43m.26,2.6H72v9.71H69.53Z"/><path class="cls-4" d="M74.79,13.48H73.63v-2h1.16V9.07h2.47v2.4h2.17v2H77.26v4.7c0,.65.26.93,1,.93h1.14v2.07H77.89c-1.86,0-3.1-.79-3.1-3Z"/><path class="cls-4" d="M85,11.31a3.86,3.86,0,0,1,3.2,1.54V11.47h2.47v9.71H88.21V19.76A3.82,3.82,0,0,1,85,21.33c-2.46,0-4.42-2-4.42-5s2-5,4.44-5m.63,2.16a2.59,2.59,0,0,0-2.56,2.82,2.65,2.65,0,0,0,2.56,2.89,2.61,2.61,0,0,0,2.57-2.86,2.6,2.6,0,0,0-2.57-2.85"/><rect class="cls-4" x="93.08" y="8.21" width="2.45" height="12.97"/><path class="cls-4" d="M44.61,38c-2.44,0-4.13-1.42-4.24-3.22h2.47A1.61,1.61,0,0,0,44.59,36c1,0,1.49-.44,1.49-1,0-1.74-5.48-.63-5.48-4.19,0-1.61,1.43-2.91,3.84-2.91s3.76,1.28,3.9,3.21H46a1.44,1.44,0,0,0-1.63-1.26c-.92,0-1.39.36-1.39.92,0,1.77,5.38.67,5.45,4.23C48.43,36.69,47,38,44.61,38"/><path class="cls-4" d="M50.83,30.1H49.68v-2h1.15v-2.4H53.3v2.4h2.18v2H53.3v4.7c0,.65.27.93,1,.93h1.14V37.8H53.93c-1.85,0-3.1-.79-3.1-3Z"/><path class="cls-4" d="M61.05,27.93a3.86,3.86,0,0,1,3.21,1.54V28.09h2.47V37.8H64.26V36.38A3.83,3.83,0,0,1,61,38c-2.45,0-4.41-2-4.41-5s2-5,4.43-5m.63,2.16a2.59,2.59,0,0,0-2.56,2.82,2.66,2.66,0,0,0,2.56,2.89,2.62,2.62,0,0,0,2.58-2.86,2.61,2.61,0,0,0-2.58-2.85"/><path class="cls-4" d="M72.93,27.93a3.8,3.8,0,0,1,3.21,1.54V28.09h2.47v9.78a4.44,4.44,0,0,1-4.8,4.71c-2.74,0-4.65-1.37-4.89-3.59h2.43a2.3,2.3,0,0,0,2.39,1.45,2.27,2.27,0,0,0,2.4-2.57V36.36A3.83,3.83,0,0,1,72.93,38c-2.47,0-4.43-2-4.43-5s2-5,4.43-5m.63,2.16A2.59,2.59,0,0,0,71,32.91a2.66,2.66,0,0,0,2.56,2.89,2.62,2.62,0,0,0,2.58-2.86,2.61,2.61,0,0,0-2.58-2.85"/><path class="cls-4" d="M85.25,38a4.7,4.7,0,0,1-4.87-5,4.67,4.67,0,0,1,4.87-5A4.56,4.56,0,0,1,90,32.73a6.08,6.08,0,0,1-.07,1h-7.1a2.27,2.27,0,0,0,2.33,2.24,2,2,0,0,0,1.94-1.17h2.65A4.52,4.52,0,0,1,85.25,38M82.89,32h4.6A2.15,2.15,0,0,0,85.18,30,2.25,2.25,0,0,0,82.89,32"/><path class="cls-4" d="M21,27.41A23.24,23.24,0,0,0,5,24a14.48,14.48,0,0,0-.54,3.91c0,.44,0,.87.06,1.29A18.33,18.33,0,0,1,25.74,41a14.8,14.8,0,0,0,4.17-3.18A23.23,23.23,0,0,0,21,27.41"/><path class="cls-4" d="M23.58,23.42a27.72,27.72,0,0,1,9.22,9.67,14.62,14.62,0,0,0,.93-5.15V7.42H19.1v5.89A14.61,14.61,0,0,0,7.46,19.07a27.93,27.93,0,0,1,16.12,4.35"/><path class="cls-4" d="M15.79,35.66A13.73,13.73,0,0,0,5.68,33.79a14.76,14.76,0,0,0,4.39,5.67,3.79,3.79,0,0,1,3.1.67h0a3.75,3.75,0,0,1,1.29,1.7,14.84,14.84,0,0,0,4.64.75,14.09,14.09,0,0,0,2.16-.16,13.69,13.69,0,0,0-5.47-6.76"/></g></g></g></svg>