<svg id="Layer_1" data-name="Layer 1" xmlns="http://www.w3.org/2000/svg" xmlns:xlink="http://www.w3.org/1999/xlink" viewBox="0 0 48 48"><defs><style>.cls-1{fill:none;}.cls-2{clip-path:url(#clip-path);}.cls-3{clip-path:url(#clip-path-2);}</style><clipPath id="clip-path"><rect class="cls-1" x="4.68" y="0.79" width="38.64" height="46.42"/></clipPath><clipPath id="clip-path-2"><rect class="cls-1" x="4.68" y="0.79" width="38.64" height="46.42"/></clipPath></defs><g id="digitalstageIcon_black"><g class="cls-2"><g class="cls-3"><path d="M26.57,27.18A30.73,30.73,0,0,0,5.38,22.72a19.61,19.61,0,0,0-.7,5.17c0,.57,0,1.13.08,1.69a24.21,24.21,0,0,1,28,15.52,19.31,19.31,0,0,0,5.5-4.19,30.63,30.63,0,0,0-11.7-13.73"/><path d="M29.92,21.92A36.69,36.69,0,0,1,42.09,34.68a19.34,19.34,0,0,0,1.23-6.79V.79H24V8.57A19.24,19.24,0,0,0,8.64,16.18a36.76,36.76,0,0,1,21.28,5.74"/><path d="M19.63,38.07A18.16,18.16,0,0,0,6.29,35.6a19.24,19.24,0,0,0,5.79,7.49,5,5,0,0,1,4.1.88h0a5,5,0,0,1,1.7,2.24,19.29,19.29,0,0,0,9,.79,18.1,18.1,0,0,0-7.22-8.93"/></g></g></g></svg>