<svg id="Layer_1" data-name="Layer 1" xmlns="http://www.w3.org/2000/svg" xmlns:xlink="http://www.w3.org/1999/xlink" viewBox="0 0 48 48"><defs><style>.cls-1{fill:none;}.cls-2{clip-path:url(#clip-path);}.cls-3{clip-path:url(#clip-path-2);}.cls-4{fill:url(#linear-gradient);}.cls-5{clip-path:url(#clip-path-3);}.cls-6{clip-path:url(#clip-path-4);}.cls-7{fill:#fff;}</style><clipPath id="clip-path"><rect class="cls-1" x="4.68" y="0.79" width="38.64" height="46.42"/></clipPath><clipPath id="clip-path-2"><rect class="cls-1" x="4.68" y="0.79" width="38.64" height="46.42"/></clipPath><linearGradient id="linear-gradient" x1="7.44" y1="38.75" x2="43.28" y2="6.82" gradientUnits="userSpaceOnUse"><stop offset="0" stop-color="#193154"/><stop offset="1" stop-color="#e51947"/></linearGradient><clipPath id="clip-path-3"><rect class="cls-1" x="6.8" y="3.74" width="33.74" height="40.52"/></clipPath><clipPath id="clip-path-4"><rect class="cls-1" x="6.8" y="3.74" width="33.74" height="40.52"/></clipPath></defs><g id="digitalstageIcon_black"><g class="cls-2"><g class="cls-3"><path d="M26.57,27.18A30.73,30.73,0,0,0,5.38,22.72a19.61,19.61,0,0,0-.7,5.17c0,.57,0,1.13.08,1.69a24.21,24.21,0,0,1,28,15.52,19.31,19.31,0,0,0,5.5-4.19,30.63,30.63,0,0,0-11.7-13.73"/><path d="M29.92,21.92A36.69,36.69,0,0,1,42.09,34.68a19.34,19.34,0,0,0,1.23-6.79V.79H24V8.57A19.24,19.24,0,0,0,8.64,16.18a36.76,36.76,0,0,1,21.28,5.74"/><path d="M19.63,38.07A18.16,18.16,0,0,0,6.29,35.6a19.24,19.24,0,0,0,5.79,7.49,5,5,0,0,1,4.1.88h0a5,5,0,0,1,1.7,2.24,19.29,19.29,0,0,0,9,.79,18.1,18.1,0,0,0-7.22-8.93"/></g></g></g><rect class="cls-4" width="48" height="48"/><g id="digitalstageIcon_white"><g class="cls-5"><g class="cls-6"><path class="cls-7" d="M25.91,26.77a26.84,26.84,0,0,0-18.5-3.89,17.22,17.22,0,0,0-.61,4.51,14.72,14.72,0,0,0,.07,1.49A21.12,21.12,0,0,1,31.32,42.42a16.69,16.69,0,0,0,4.8-3.65,26.8,26.8,0,0,0-10.21-12"/><path class="cls-7" d="M28.83,22.18A32,32,0,0,1,39.46,33.33a17,17,0,0,0,1.07-5.94V3.74H23.67v6.78a16.83,16.83,0,0,0-13.42,6.65,32.09,32.09,0,0,1,18.58,5"/><path class="cls-7" d="M19.85,36.29A15.8,15.8,0,0,0,8.2,34.13a17.05,17.05,0,0,0,5.06,6.54,4.42,4.42,0,0,1,3.58.76h0a4.4,4.4,0,0,1,1.48,2,16.9,16.9,0,0,0,5.35.87,17.17,17.17,0,0,0,2.49-.18,15.75,15.75,0,0,0-6.31-7.79"/></g></g></g></svg>