<svg id="Layer_1" data-name="Layer 1" xmlns="http://www.w3.org/2000/svg" xmlns:xlink="http://www.w3.org/1999/xlink" viewBox="0 0 48 48"><defs><style>.cls-1{fill:none;}.cls-2{font-size:12px;fill:#fff;font-family:Poppins-SemiBold, Poppins;font-weight:600;}.cls-3{clip-path:url(#clip-path);}.cls-4{clip-path:url(#clip-path-2);}.cls-5{fill:url(#linear-gradient);}.cls-6{clip-path:url(#clip-path-3);}.cls-7{fill:url(#linear-gradient-2);}.cls-8{clip-path:url(#clip-path-4);}.cls-9{fill:url(#linear-gradient-3);}</style><clipPath id="clip-path"><rect class="cls-1" x="4.68" y="0.79" width="38.64" height="46.42"/></clipPath><clipPath id="clip-path-2"><path class="cls-1" d="M5.38,22.72a19.61,19.61,0,0,0-.7,5.17c0,.57,0,1.13.08,1.69a24.21,24.21,0,0,1,28,15.52,19.31,19.31,0,0,0,5.5-4.19A30.73,30.73,0,0,0,10.06,22.37a31.85,31.85,0,0,0-4.68.35"/></clipPath><linearGradient id="linear-gradient" x1="-1909.94" y1="-394.14" x2="-1908.82" y2="-394.14" gradientTransform="matrix(41.87, 0, 0, -41.87, 79955.36, -16467.39)" gradientUnits="userSpaceOnUse"><stop offset="0" stop-color="#193154"/><stop offset="1" stop-color="#e51947"/></linearGradient><clipPath id="clip-path-3"><path class="cls-1" d="M24,.79V8.57A19.24,19.24,0,0,0,8.64,16.18a36.76,36.76,0,0,1,21.28,5.74A36.64,36.64,0,0,1,42.09,34.69a19.44,19.44,0,0,0,1.23-6.8V.79Z"/></clipPath><linearGradient id="linear-gradient-2" x1="-1909.94" y1="-394.08" x2="-1908.82" y2="-394.08" gradientTransform="matrix(41.87, 0, 0, -41.87, 79943.31, -16480.95)" xlink:href="#linear-gradient"/><clipPath id="clip-path-4"><path class="cls-1" d="M6.29,35.6a19.24,19.24,0,0,0,5.79,7.49,5,5,0,0,1,4.1.88h0a5,5,0,0,1,1.7,2.24,19.06,19.06,0,0,0,6.12,1A20.55,20.55,0,0,0,26.85,47,18.06,18.06,0,0,0,9.91,35.24a18.29,18.29,0,0,0-3.62.36"/></clipPath><linearGradient id="linear-gradient-3" x1="-1909.94" y1="-394.13" x2="-1908.82" y2="-394.13" gradientTransform="matrix(41.87, 0, 0, -41.87, 79959.2, -16459.35)" xlink:href="#linear-gradient"/></defs><text class="cls-2" transform="translate(-14.95 50.95) rotate(-90)">48x48px</text><g id="digitalstageIcon_colour"><g class="cls-3"><g class="cls-4"><rect class="cls-5" x="4.85" y="13.99" width="33.25" height="39.5" transform="translate(-17.71 41.71) rotate(-69.03)"/></g><g class="cls-6"><rect class="cls-7" x="3.95" y="-4.52" width="44.06" height="44.52" transform="translate(0.12 35.65) rotate(-69.03)"/></g><g class="cls-8"><rect class="cls-9" x="7.3" y="29.48" width="18.53" height="23.48" transform="translate(-27.86 41.94) rotate(-69.03)"/></g></g></g></svg>