<svg id="Layer_1" data-name="Layer 1" xmlns="http://www.w3.org/2000/svg" viewBox="0 0 150 80"><defs><style>.cls-1{fill:#fff;}</style></defs><path class="cls-1" d="M68.18,23.27A4.69,4.69,0,0,1,71.89,25V19.64H74.8V34.81H71.89V33.13A4.31,4.31,0,0,1,68.16,35C65.27,35,63,32.64,63,29.09S65.27,23.27,68.18,23.27Zm.72,2.52a3,3,0,0,0-3,3.3,3.11,3.11,0,0,0,3,3.38,3.06,3.06,0,0,0,3-3.34A3.06,3.06,0,0,0,68.9,25.79Z"/><path class="cls-1" d="M77.3,20.42a1.76,1.76,0,1,1,1.76,1.68A1.68,1.68,0,0,1,77.3,20.42Zm.31,3h2.86V34.81H77.61Z"/><path class="cls-1" d="M87.75,23.27a4.46,4.46,0,0,1,3.75,1.8V23.45h2.89V34.89c0,3.07-1.89,5.51-5.62,5.51-3.19,0-5.43-1.6-5.71-4.2H85.9a2.67,2.67,0,0,0,2.79,1.7c1.58,0,2.81-.9,2.81-3V33.13A4.49,4.49,0,0,1,87.75,35c-2.89,0-5.19-2.35-5.19-5.9S84.86,23.27,87.75,23.27Zm.74,2.52a3,3,0,0,0-3,3.3,3.11,3.11,0,0,0,3,3.38,3.06,3.06,0,0,0,3-3.34A3.06,3.06,0,0,0,88.49,25.79Z"/><path class="cls-1" d="M96.89,20.42a1.76,1.76,0,1,1,1.76,1.68A1.68,1.68,0,0,1,96.89,20.42Zm.3,3h2.87V34.81H97.19Z"/><path class="cls-1" d="M103.34,25.81H102V23.45h1.35v-2.8h2.89v2.8h2.54v2.36h-2.54V31.3c0,.76.31,1.09,1.21,1.09h1.33v2.42H107c-2.17,0-3.63-.92-3.63-3.53Z"/><path class="cls-1" d="M115.29,23.27a4.51,4.51,0,0,1,3.75,1.8V23.45h2.89V34.81H119V33.15A4.49,4.49,0,0,1,115.27,35c-2.87,0-5.17-2.35-5.17-5.9S112.4,23.27,115.29,23.27Zm.74,2.52a3,3,0,0,0-3,3.3,3.11,3.11,0,0,0,3,3.38,3.06,3.06,0,0,0,3-3.34A3.06,3.06,0,0,0,116,25.79Z"/><path class="cls-1" d="M124.74,19.64h2.86V34.81h-2.86Z"/><path class="cls-1" d="M68.06,54.43c-2.85,0-4.84-1.66-5-3.77H66A1.88,1.88,0,0,0,68,52.17c1.12,0,1.74-.51,1.74-1.17,0-2-6.42-.73-6.42-4.89,0-1.89,1.68-3.41,4.49-3.41s4.41,1.5,4.57,3.76H69.67A1.68,1.68,0,0,0,67.77,45c-1.07,0-1.62.43-1.62,1.08,0,2.07,6.29.78,6.37,4.94C72.52,53,70.82,54.43,68.06,54.43Z"/><path class="cls-1" d="M75.33,45.25H74V42.89h1.35V40.08h2.89v2.81h2.54v2.36H78.22v5.49c0,.76.31,1.08,1.21,1.08h1.33v2.42H79c-2.17,0-3.63-.92-3.63-3.52Z"/><path class="cls-1" d="M87.28,42.7A4.51,4.51,0,0,1,91,44.51V42.89h2.89V54.24H91V52.58a4.47,4.47,0,0,1-3.77,1.85c-2.87,0-5.17-2.36-5.17-5.91S84.39,42.7,87.28,42.7ZM88,45.23a3,3,0,0,0-3,3.29,3.11,3.11,0,0,0,3,3.39,3.06,3.06,0,0,0,3-3.34A3.05,3.05,0,0,0,88,45.23Z"/><path class="cls-1" d="M101.17,42.7a4.42,4.42,0,0,1,3.75,1.81V42.89h2.89V54.32c0,3.08-1.88,5.52-5.61,5.52-3.2,0-5.43-1.6-5.72-4.2h2.85a2.66,2.66,0,0,0,2.78,1.7c1.58,0,2.81-.91,2.81-3V52.56a4.48,4.48,0,0,1-3.75,1.87c-2.89,0-5.18-2.36-5.18-5.91S98.28,42.7,101.17,42.7Zm.74,2.53a3,3,0,0,0-3,3.29,3.1,3.1,0,0,0,3,3.39,3.05,3.05,0,0,0,3-3.34A3,3,0,0,0,101.91,45.23Z"/><path class="cls-1" d="M115.58,54.43a5.5,5.5,0,0,1-5.7-5.86c0-3.59,2.34-5.87,5.7-5.87a5.33,5.33,0,0,1,5.59,5.62,6.91,6.91,0,0,1-.08,1.11h-8.3a2.65,2.65,0,0,0,2.73,2.62,2.34,2.34,0,0,0,2.27-1.37h3.1A5.29,5.29,0,0,1,115.58,54.43Zm-2.77-6.93h5.39a2.52,2.52,0,0,0-2.7-2.44A2.64,2.64,0,0,0,112.81,47.5Z"/><path class="cls-1" d="M40.5,42.09a27.21,27.21,0,0,0-18.77-3.94,17.21,17.21,0,0,0-.62,4.57c0,.51,0,1,.07,1.5A21.44,21.44,0,0,1,46,58a17.2,17.2,0,0,0,4.87-3.71A27.21,27.21,0,0,0,40.5,42.09Z"/><path class="cls-1" d="M43.47,37.43A32.59,32.59,0,0,1,54.25,48.74a17.15,17.15,0,0,0,1.09-6v-24H38.22v6.89a17.08,17.08,0,0,0-13.61,6.74A32.56,32.56,0,0,1,43.47,37.43Z"/><path class="cls-1" d="M34.35,51.74a16,16,0,0,0-11.82-2.18,17.18,17.18,0,0,0,5.14,6.63A4.44,4.44,0,0,1,31.3,57h0a4.45,4.45,0,0,1,1.5,2,17.11,17.11,0,0,0,5.42.89,17.62,17.62,0,0,0,2.53-.19A16.06,16.06,0,0,0,34.35,51.74Z"/></svg>